<mxfile host="app.diagrams.net" agent="Mozilla/5.0 (Macintosh; Intel Mac OS X 10.15; rv:137.0) Gecko/20100101 Firefox/137.0" version="26.2.8">
  <diagram id="vIS98_wAug5bRttO1ruv" name="Page-1">
    <mxGraphModel dx="833" dy="527" grid="1" gridSize="10" guides="1" tooltips="1" connect="1" arrows="1" fold="1" page="1" pageScale="1" pageWidth="827" pageHeight="1169" math="0" shadow="0">
      <root>
        <mxCell id="0" />
        <mxCell id="1" parent="0" />
        <mxCell id="-d85q1kpaTbKizXLM7eA-1" value="User" style="shape=umlActor;verticalLabelPosition=bottom;verticalAlign=top;html=1;outlineConnect=0;" parent="1" vertex="1">
          <mxGeometry x="107" y="50" width="30" height="60" as="geometry" />
        </mxCell>
        <mxCell id="-d85q1kpaTbKizXLM7eA-5" value="Browser" style="aspect=fixed;html=1;points=[];align=center;image;fontSize=12;image=img/lib/azure2/general/Browser.svg;" parent="1" vertex="1">
          <mxGeometry x="90" y="140" width="65" height="52" as="geometry" />
        </mxCell>
        <mxCell id="-d85q1kpaTbKizXLM7eA-6" value="" style="aspect=fixed;perimeter=ellipsePerimeter;html=1;align=center;shadow=0;dashed=0;spacingTop=3;image;image=img/lib/active_directory/internet_cloud.svg;" parent="1" vertex="1">
          <mxGeometry x="77" y="250" width="95.24" height="60" as="geometry" />
        </mxCell>
        <mxCell id="-d85q1kpaTbKizXLM7eA-7" value="" style="endArrow=classic;startArrow=classic;html=1;entryX=0.538;entryY=1;entryDx=0;entryDy=0;entryPerimeter=0;" parent="1" source="-d85q1kpaTbKizXLM7eA-6" target="-d85q1kpaTbKizXLM7eA-5" edge="1">
          <mxGeometry width="50" height="50" relative="1" as="geometry">
            <mxPoint x="390" y="570" as="sourcePoint" />
            <mxPoint x="440" y="520" as="targetPoint" />
          </mxGeometry>
        </mxCell>
        <mxCell id="-d85q1kpaTbKizXLM7eA-9" value="" style="rounded=1;whiteSpace=wrap;html=1;" parent="1" vertex="1">
          <mxGeometry x="38" y="488" width="173" height="60" as="geometry" />
        </mxCell>
        <mxCell id="-d85q1kpaTbKizXLM7eA-10" value="" style="shape=image;html=1;verticalAlign=top;verticalLabelPosition=bottom;labelBackgroundColor=#ffffff;imageAspect=0;aspect=fixed;image=https://cdn4.iconfinder.com/data/icons/logos-brands-5/24/cloudflare-128.png" parent="1" vertex="1">
          <mxGeometry x="49" y="488" width="54" height="54" as="geometry" />
        </mxCell>
        <mxCell id="-d85q1kpaTbKizXLM7eA-11" value="Cloudflare" style="text;html=1;strokeColor=none;fillColor=none;align=center;verticalAlign=middle;whiteSpace=wrap;rounded=0;" parent="1" vertex="1">
          <mxGeometry x="119" y="508" width="40" height="20" as="geometry" />
        </mxCell>
        <mxCell id="-d85q1kpaTbKizXLM7eA-12" value="" style="endArrow=classic;html=1;exitX=0.5;exitY=1;exitDx=0;exitDy=0;" parent="1" source="-d85q1kpaTbKizXLM7eA-6" target="-d85q1kpaTbKizXLM7eA-9" edge="1">
          <mxGeometry width="50" height="50" relative="1" as="geometry">
            <mxPoint x="390" y="570" as="sourcePoint" />
            <mxPoint x="440" y="520" as="targetPoint" />
          </mxGeometry>
        </mxCell>
        <mxCell id="-d85q1kpaTbKizXLM7eA-13" value="https://muinaismuistot.info" style="edgeLabel;html=1;align=center;verticalAlign=middle;resizable=0;points=[];" parent="-d85q1kpaTbKizXLM7eA-12" vertex="1" connectable="0">
          <mxGeometry x="-0.0889" y="-1" relative="1" as="geometry">
            <mxPoint x="-5" y="38" as="offset" />
          </mxGeometry>
        </mxCell>
        <mxCell id="-d85q1kpaTbKizXLM7eA-14" value="" style="rounded=1;whiteSpace=wrap;html=1;" parent="1" vertex="1">
          <mxGeometry x="39" y="643" width="171" height="60" as="geometry" />
        </mxCell>
        <mxCell id="-d85q1kpaTbKizXLM7eA-15" value="" style="dashed=0;outlineConnect=0;html=1;align=center;labelPosition=center;verticalLabelPosition=bottom;verticalAlign=top;shape=mxgraph.weblogos.github" parent="1" vertex="1">
          <mxGeometry x="49" y="648" width="50" height="50" as="geometry" />
        </mxCell>
        <mxCell id="-d85q1kpaTbKizXLM7eA-16" value="GitHub Pages" style="text;html=1;strokeColor=none;fillColor=none;align=center;verticalAlign=middle;whiteSpace=wrap;rounded=0;" parent="1" vertex="1">
          <mxGeometry x="103" y="663" width="80" height="15" as="geometry" />
        </mxCell>
        <mxCell id="-d85q1kpaTbKizXLM7eA-17" value="" style="endArrow=classic;html=1;exitX=0.5;exitY=1;exitDx=0;exitDy=0;entryX=0.5;entryY=0;entryDx=0;entryDy=0;" parent="1" source="-d85q1kpaTbKizXLM7eA-9" target="-d85q1kpaTbKizXLM7eA-14" edge="1">
          <mxGeometry width="50" height="50" relative="1" as="geometry">
            <mxPoint x="124" y="558" as="sourcePoint" />
            <mxPoint x="123.99999999999997" y="632" as="targetPoint" />
          </mxGeometry>
        </mxCell>
        <mxCell id="-d85q1kpaTbKizXLM7eA-18" value="http://muinaismuistot.info" style="edgeLabel;html=1;align=center;verticalAlign=middle;resizable=0;points=[];" parent="-d85q1kpaTbKizXLM7eA-17" vertex="1" connectable="0">
          <mxGeometry x="-0.0889" y="-1" relative="1" as="geometry">
            <mxPoint x="-1" y="15" as="offset" />
          </mxGeometry>
        </mxCell>
        <mxCell id="-d85q1kpaTbKizXLM7eA-19" value="&lt;div&gt;National Land Survey of Finland&lt;/div&gt;&lt;div&gt;avoin-karttakuva.maanmittauslaitos.fi&lt;br&gt;&lt;/div&gt;" style="points=[];aspect=fixed;html=1;align=center;shadow=0;dashed=0;image;image=img/lib/allied_telesis/computer_and_terminals/Server_Desktop.svg;" parent="1" vertex="1">
          <mxGeometry x="610" y="40" width="71" height="90" as="geometry" />
        </mxCell>
        <mxCell id="-d85q1kpaTbKizXLM7eA-20" value="" style="endArrow=classic;html=1;exitX=1;exitY=0.5;exitDx=0;exitDy=0;" parent="1" source="-d85q1kpaTbKizXLM7eA-6" target="-d85q1kpaTbKizXLM7eA-19" edge="1">
          <mxGeometry width="50" height="50" relative="1" as="geometry">
            <mxPoint x="390" y="570" as="sourcePoint" />
            <mxPoint x="440" y="520" as="targetPoint" />
          </mxGeometry>
        </mxCell>
        <mxCell id="-d85q1kpaTbKizXLM7eA-21" value="WMTS" style="edgeLabel;html=1;align=center;verticalAlign=middle;resizable=0;points=[];" parent="-d85q1kpaTbKizXLM7eA-20" vertex="1" connectable="0">
          <mxGeometry x="-0.0125" y="1" relative="1" as="geometry">
            <mxPoint as="offset" />
          </mxGeometry>
        </mxCell>
        <mxCell id="-d85q1kpaTbKizXLM7eA-22" value="&lt;div&gt;The Finnish Heritage Agency&lt;/div&gt;&lt;div&gt;geoserver.museovirasto.fi&lt;/div&gt;" style="points=[];aspect=fixed;html=1;align=center;shadow=0;dashed=0;image;image=img/lib/allied_telesis/computer_and_terminals/Server_Desktop.svg;" parent="1" vertex="1">
          <mxGeometry x="610" y="470" width="71" height="90" as="geometry" />
        </mxCell>
        <mxCell id="-d85q1kpaTbKizXLM7eA-25" value="" style="endArrow=classic;html=1;exitX=1;exitY=0.5;exitDx=0;exitDy=0;" parent="1" source="-d85q1kpaTbKizXLM7eA-6" target="-d85q1kpaTbKizXLM7eA-22" edge="1">
          <mxGeometry width="50" height="50" relative="1" as="geometry">
            <mxPoint x="182.24" y="290" as="sourcePoint" />
            <mxPoint x="620" y="109.62726619617115" as="targetPoint" />
          </mxGeometry>
        </mxCell>
        <mxCell id="-d85q1kpaTbKizXLM7eA-26" value="&lt;div&gt;GeoServer&amp;nbsp;&lt;/div&gt;&lt;div&gt;WMS &amp;amp; WFS&lt;/div&gt;" style="edgeLabel;html=1;align=center;verticalAlign=middle;resizable=0;points=[];" parent="-d85q1kpaTbKizXLM7eA-25" vertex="1" connectable="0">
          <mxGeometry x="-0.0125" y="1" relative="1" as="geometry">
            <mxPoint as="offset" />
          </mxGeometry>
        </mxCell>
        <mxCell id="-d85q1kpaTbKizXLM7eA-27" value="&lt;div&gt;Government of Ã…land&lt;br&gt;&lt;/div&gt;&lt;div&gt;kartor.regeringen.ax&lt;br&gt;&lt;/div&gt;" style="points=[];aspect=fixed;html=1;align=center;shadow=0;dashed=0;image;image=img/lib/allied_telesis/computer_and_terminals/Server_Desktop.svg;" parent="1" vertex="1">
          <mxGeometry x="610" y="180" width="71" height="90" as="geometry" />
        </mxCell>
        <mxCell id="-d85q1kpaTbKizXLM7eA-28" value="" style="endArrow=classic;html=1;exitX=1;exitY=0.5;exitDx=0;exitDy=0;" parent="1" source="-d85q1kpaTbKizXLM7eA-6" target="-d85q1kpaTbKizXLM7eA-27" edge="1">
          <mxGeometry width="50" height="50" relative="1" as="geometry">
            <mxPoint x="182.24" y="290" as="sourcePoint" />
            <mxPoint x="620" y="286.3000464860754" as="targetPoint" />
          </mxGeometry>
        </mxCell>
        <mxCell id="-d85q1kpaTbKizXLM7eA-29" value="ArcGIS REST" style="edgeLabel;html=1;align=center;verticalAlign=middle;resizable=0;points=[];" parent="-d85q1kpaTbKizXLM7eA-28" vertex="1" connectable="0">
          <mxGeometry x="-0.0125" y="1" relative="1" as="geometry">
            <mxPoint as="offset" />
          </mxGeometry>
        </mxCell>
        <mxCell id="-d85q1kpaTbKizXLM7eA-30" value="&lt;div&gt;Geological Survey of Finland&lt;/div&gt;&lt;div&gt;gtkdata.gtk.fi&lt;br&gt;&lt;/div&gt;" style="points=[];aspect=fixed;html=1;align=center;shadow=0;dashed=0;image;image=img/lib/allied_telesis/computer_and_terminals/Server_Desktop.svg;" parent="1" vertex="1">
          <mxGeometry x="610" y="320" width="71" height="90" as="geometry" />
        </mxCell>
        <mxCell id="-d85q1kpaTbKizXLM7eA-31" value="" style="endArrow=classic;html=1;" parent="1" target="-d85q1kpaTbKizXLM7eA-30" edge="1">
          <mxGeometry width="50" height="50" relative="1" as="geometry">
            <mxPoint x="171" y="280" as="sourcePoint" />
            <mxPoint x="620" y="369.2069190600523" as="targetPoint" />
          </mxGeometry>
        </mxCell>
        <mxCell id="-d85q1kpaTbKizXLM7eA-32" value="ArcGIS REST" style="edgeLabel;html=1;align=center;verticalAlign=middle;resizable=0;points=[];" parent="-d85q1kpaTbKizXLM7eA-31" vertex="1" connectable="0">
          <mxGeometry x="-0.0125" y="1" relative="1" as="geometry">
            <mxPoint as="offset" />
          </mxGeometry>
        </mxCell>
        <mxCell id="-d85q1kpaTbKizXLM7eA-34" value="" style="endArrow=classic;html=1;exitX=1;exitY=0.75;exitDx=0;exitDy=0;entryX=0;entryY=0.5;entryDx=0;entryDy=0;entryPerimeter=0;" parent="1" source="-d85q1kpaTbKizXLM7eA-6" target="-d85q1kpaTbKizXLM7eA-36" edge="1">
          <mxGeometry width="50" height="50" relative="1" as="geometry">
            <mxPoint x="182.24" y="290" as="sourcePoint" />
            <mxPoint x="361" y="460" as="targetPoint" />
          </mxGeometry>
        </mxCell>
        <mxCell id="-d85q1kpaTbKizXLM7eA-35" value="&lt;div&gt;GeoServer&lt;/div&gt;&lt;div&gt;WMS&lt;br&gt;&lt;/div&gt;" style="edgeLabel;html=1;align=center;verticalAlign=middle;resizable=0;points=[];" parent="-d85q1kpaTbKizXLM7eA-34" vertex="1" connectable="0">
          <mxGeometry x="-0.0125" y="1" relative="1" as="geometry">
            <mxPoint as="offset" />
          </mxGeometry>
        </mxCell>
        <mxCell id="-d85q1kpaTbKizXLM7eA-36" value="&lt;div&gt;City of Helsinki&lt;br&gt;&lt;/div&gt;&lt;div&gt;kartta.hel.fi&lt;br&gt;&lt;/div&gt;" style="points=[];aspect=fixed;html=1;align=center;shadow=0;dashed=0;image;image=img/lib/allied_telesis/computer_and_terminals/Server_Desktop.svg;" parent="1" vertex="1">
          <mxGeometry x="610" y="622" width="71" height="90" as="geometry" />
        </mxCell>
        <mxCell id="-d85q1kpaTbKizXLM7eA-45" value="" style="shape=image;verticalLabelPosition=bottom;labelBackgroundColor=#ffffff;verticalAlign=top;aspect=fixed;imageAspect=0;image=data:image/png,iVBORw0KGgoAAAANSUhEUgAAADMAAAAqCAYAAAAeeGN5AAABRmlDQ1BJQ0MgUHJvZmlsZQAAKJFjYGASSSwoyGFhYGDIzSspCnJ3UoiIjFJgf8rAxsDLwMcgxaCZmFxc4BgQ4ANUwgCjUcG3awyMIPqyLsisZV8XHdZK+MZ0880XhTkPlR9iqkcBXCmpxclA+g8QpyUXFJUwMDCmANnK5SUFIHYHkC1SBHQUkD0HxE6HsDeA2EkQ9hGwmpAgZyD7BpAtkJyRCDSD8QWQrZOEJJ6OxIbaCwI8Lq4+PgqhxiaG5uEEnEs6KEmtKAHRzvkFlUWZ6RklCo7AUEpV8MxL1tNRMDIwMmRgAIU5RPXn8+CwZJRIQojlRjIwmNUDGfsQYsmZDAw7tIHenosQUxNhYBAMY2DYe6kgsSgR7gDGbyzFacZGEDaPFAMD64H//z/9Z2BgT2Bg+Hvu///fM/7//zuNgYH5CwPDfj8AqjBhQrh0WSYAAABWZVhJZk1NACoAAAAIAAGHaQAEAAAAAQAAABoAAAAAAAOShgAHAAAAEgAAAESgAgAEAAAAAQAAADOgAwAEAAAAAQAAACoAAAAAQVNDSUkAAABTY3JlZW5zaG90zZb8dQAAAdRpVFh0WE1MOmNvbS5hZG9iZS54bXAAAAAAADx4OnhtcG1ldGEgeG1sbnM6eD0iYWRvYmU6bnM6bWV0YS8iIHg6eG1wdGs9IlhNUCBDb3JlIDUuNC4wIj4KICAgPHJkZjpSREYgeG1sbnM6cmRmPSJodHRwOi8vd3d3LnczLm9yZy8xOTk5LzAyLzIyLXJkZi1zeW50YXgtbnMjIj4KICAgICAgPHJkZjpEZXNjcmlwdGlvbiByZGY6YWJvdXQ9IiIKICAgICAgICAgICAgeG1sbnM6ZXhpZj0iaHR0cDovL25zLmFkb2JlLmNvbS9leGlmLzEuMC8iPgogICAgICAgICA8ZXhpZjpQaXhlbFhEaW1lbnNpb24+NTE8L2V4aWY6UGl4ZWxYRGltZW5zaW9uPgogICAgICAgICA8ZXhpZjpVc2VyQ29tbWVudD5TY3JlZW5zaG90PC9leGlmOlVzZXJDb21tZW50PgogICAgICAgICA8ZXhpZjpQaXhlbFlEaW1lbnNpb24+NDI8L2V4aWY6UGl4ZWxZRGltZW5zaW9uPgogICAgICA8L3JkZjpEZXNjcmlwdGlvbj4KICAgPC9yZGY6UkRGPgo8L3g6eG1wbWV0YT4Ku3307QAAA4hJREFUaAXtmL9PIkEUx4fLNV5yBria0gISEhML4A/A3sTGI6Ey/ANovIISDX8AFY0FgY7ahMZWahIKLZWrTn78BTjfvXubt7Ozy+wy5tAwyTq/3ryZ995n37AmVrKIT1K+fBI7HDN2xmxrNHeR+VCRmb3ORCKRiPWUSiVxc3Mjnp6ePDZDJ8Yxn06nY+meTn97dPo6SM1qef3zinS98XN5eemovr6+XqVSqY31vbxM1aN6+sLT+9exZQwckslkNjaCHLvOmK++UIUMNJtNcXR0FCgxm83E/f29GAwGYj6fO3LPz88e+dPTU3FycuKg5plgHeipVCpsxLAZJTLFYlEn7htDZLPZrCci6D8+PvpkdQPHx8eetdIUp78uMpExk9HR7e8bU1G9u7vzyegGer2e1hAYZMWYQqHgboAX2dTD5FHUJsbAATxRIJp873XGGF2a3W5XyE3kmYTzLlSrVadt+8/ZzzP3XYPu29vbSFsYGXNwcCDq9bqr+OHhQch06/ZtNPr9vhgOh66q8/NzIaPi9o0aOm5V3kmGh9wEN3kAF88wzFS8kM4xhsL3tIIZeQW4UUHqtYXb1a8rD16dTkekf6RpK/OavM7roMhA5uLiwvW23GUVlt0wT09QZDBOMqglXvwokSJjlJo92mWH3yHAjZBQ5fghdcZgHf+FwPEiXe+GmTycU3iWAW7IQnEK8OK/EGLjRZuTB3gdhhnJqbjhslOL3MNFSI3MOrxIV5TIxMKMNlqHW5AxJnjRHlGMMbpnKIpqHRc3Fa9WqxUve6kHIg/w2gQzkg/DTRcZFa9yuUyqtHWUyGyEGe3OMxLPbjpjcrmc+x5xWdKl1lGM2QgzijKyEJWw7Ca/PMVkMiFR0W637eBFGlVPoB8FM1qPy07qdB8VJ1yufH4dXqQ3SmSsYEYO4LjxNowAUmSMCV5xjLGCmTykgwvHjV+GmKfPaLSt4wWlKOQBXsfBjNaruGEL/pjiRfqiYGb0Dw38r8uk5PN55yNOYuSJBF97eHgoarWaGI/HfDiwLb9qA+d8E+QBXquRkYs83v1ffavfMz5PbNmAFrO9b3tC3uyRj7pYLBx8RqNR4Fr5DgjgmEwmA2WCJvb3vwdN/R3neNlqA1PcK5SOUeNnD8bfs2izma0Nl8vlqtForGSatqUyVE8Cs+Gx+ziz1i7NbTB5Z8w2REF3hl1kdF7ZhrE3rhv90GfdX54AAAAASUVORK5CYII=;" parent="1" vertex="1">
          <mxGeometry x="681" y="494" width="51" height="42" as="geometry" />
        </mxCell>
        <mxCell id="-d85q1kpaTbKizXLM7eA-46" value="" style="shape=image;verticalLabelPosition=bottom;labelBackgroundColor=#ffffff;verticalAlign=top;aspect=fixed;imageAspect=0;image=data:image/png,iVBORw0KGgoAAAANSUhEUgAAAEwAAABICAYAAABcBhM9AAABRmlDQ1BJQ0MgUHJvZmlsZQAAKJFjYGASSSwoyGFhYGDIzSspCnJ3UoiIjFJgf8rAxsDLwMcgxaCZmFxc4BgQ4ANUwgCjUcG3awyMIPqyLsisZV8XHdZK+MZ0880XhTkPlR9iqkcBXCmpxclA+g8QpyUXFJUwMDCmANnK5SUFIHYHkC1SBHQUkD0HxE6HsDeA2EkQ9hGwmpAgZyD7BpAtkJyRCDSD8QWQrZOEJJ6OxIbaCwI8Lq4+PgqhxiaG5uEEnEs6KEmtKAHRzvkFlUWZ6RklCo7AUEpV8MxL1tNRMDIwMmRgAIU5RPXn8+CwZJRIQojlRjIwmNUDGfsQYsmZDAw7tIHenosQUxNhYBAMY2DYe6kgsSgR7gDGbyzFacZGEDaPFAMD64H//z/9Z2BgT2Bg+Hvu///fM/7//zuNgYH5CwPDfj8AqjBhQrh0WSYAAABWZVhJZk1NACoAAAAIAAGHaQAEAAAAAQAAABoAAAAAAAOShgAHAAAAEgAAAESgAgAEAAAAAQAAAEygAwAEAAAAAQAAAEgAAAAAQVNDSUkAAABTY3JlZW5zaG902rUtOgAAAdRpVFh0WE1MOmNvbS5hZG9iZS54bXAAAAAAADx4OnhtcG1ldGEgeG1sbnM6eD0iYWRvYmU6bnM6bWV0YS8iIHg6eG1wdGs9IlhNUCBDb3JlIDUuNC4wIj4KICAgPHJkZjpSREYgeG1sbnM6cmRmPSJodHRwOi8vd3d3LnczLm9yZy8xOTk5LzAyLzIyLXJkZi1zeW50YXgtbnMjIj4KICAgICAgPHJkZjpEZXNjcmlwdGlvbiByZGY6YWJvdXQ9IiIKICAgICAgICAgICAgeG1sbnM6ZXhpZj0iaHR0cDovL25zLmFkb2JlLmNvbS9leGlmLzEuMC8iPgogICAgICAgICA8ZXhpZjpQaXhlbFhEaW1lbnNpb24+NzY8L2V4aWY6UGl4ZWxYRGltZW5zaW9uPgogICAgICAgICA8ZXhpZjpVc2VyQ29tbWVudD5TY3JlZW5zaG90PC9leGlmOlVzZXJDb21tZW50PgogICAgICAgICA8ZXhpZjpQaXhlbFlEaW1lbnNpb24+NzI8L2V4aWY6UGl4ZWxZRGltZW5zaW9uPgogICAgICA8L3JkZjpEZXNjcmlwdGlvbj4KICAgPC9yZGY6UkRGPgo8L3g6eG1wbWV0YT4Kp7A6dgAAFh9JREFUeAHtXFmMnFV2/mrrquqq6n2x3W534w1j8DLYGIgJmAFhGGYGjZMhSFGUSKCgvJDMKErmMcpLpEHiAYSEFBHxgMJMpGgeZgKaDCAxiAEMeGGx23uvbne73Vt17Vu+7/51q3+3u13VdreIRj7mX+su5373nHPPOfdvPCUSblHNCHhrLnmroEHgFmDLFAT/MsvfUHGj9R4PPAtqp3NFxNNZzKVySGZzSGcLyBUKKBoj4VgKn9eLgN+LcCCA+jofYuE6RIIBBANXz7UMC7tYdfKstg1bOJB4Jo8rs2lMJtJIZnLw+uoQqAsQpCKK+SIKxTxKDmJm8F6vj2W8PHwGkGw6A5QKaKgPojkSRGukDvUE0JImx7OKyK06YBpIgQCMz6ZwiUAlCFgkEkMmm0E2nUKxUDRjlXAstfoIALs26V4AhsL18PsDmIvPoCUaQmdj2IDnlDVNrorErThgZs3l6AVAjhJzaYZAzaThrQshl80inUqWR3MdhJwSNZ8j0ShK7JByiq6menQ0BE3d1ZC2FQVMEiKgRBPxDAanCI4viGRiDvlczvzmSJFKLSVPpnpNJ7fkqb1giFIXqEPIm0dvWwSx0Lyq1tRgDYVWDDBrq7K5PPqvJDGVKRmQcun06ltj4m+WFDKhaQjHoiiSj66mIDa0Rg0M7smsAZcli6wIYBasmUQG5wlWiVIVn56qMLpk7yv8gyROZOwdbxubWhBEBpvao1xV/ea9LXOjXd80YHbmxmcSBCtNpjzIpGWnHOZvlLGVqhdrbIKnmMVmghYL+W96Bb3amVkmlxas0ekEzl3JIks7lTJG/f8HWJw9xGenEWluwsWpOTO6YtFZlZc51ErxG3Zc7QoksPons8jlMrRZeXhX0QeqcH2dG02VJlJg+ejfBfxcBDIJdK+lpJG3m1XJG5YwdTwRT2OAYOUJVjFf+NbBMjjpRIo0NCBIwDa3h9HTFjW8TSdn8e6JT4wts36dU7r28w1LWDqbx7nLCRQUyhAsAWikrty3meXyvf2tdraWV3K+fcdINDa3wF+kse+MMgqoM42dHxvCrz57H/mwj2YjjR/sOUBJZFSwTFu7bMC0IuZ5Oj54BcFYEzJTkwiEQqgLBqEwRqqQzVHq6KTK9xKtNpCOMwGEInQn8nk01xXQ3RKDT/yQPjp1FL/75lMzuaV4AUfiCfS0r8PODVsd3pZhRpYFmMBS27JVPe0x1Hk5Q5EWw1SWkpai1OkoMR4sehwZi8TIOEOYEo1tLm+BzJt5rahFxfCYpirS6jxde56XKP7GMClSHzHSEvQWsYF8KcYUzTH0+p9jv8ep8QHkGLdqMtVxgRrxmyO/x8aO9YiEwssCbVluhR2gGK5GCosyAjHjADnHrISC7WyBEkiGw5EIAgEOjINQu/l8zlFvqTjBFcB6X+ShjIXHyxiSV6/Pz3oB+HgtFPIEIo2m+jqGQyECxfdlqTo/PoxfH/kAM9kksgz0FdxbEvfBaD22tXfj6fsfN33UulgtS8IsUFkOLk73IVfQIIs0rnX0cerpHDr2QowpJaMj6sok6H1WQFJtMkztpHMCkyDyPlMsECQeBMhOh2RUYBliAO+hRHspvSFOWKTOwz7r0BCmU8p+LKVpCj489QWPo3xFwNmHI+u2BK/sIJNI4evcedw3cQkb2tbUDFpNEmYGQSY/OPE5+sYGMEPfRoAVKAUCUQOMMHsg0Fpp1zob29De0MSjGU2RRoRcQLrYvuZW0pSn9BV41SgLlRKUMvYj6aEGzoNY+d1Rvy+HTuPTs8cRz6WRnkuRLy5E18JlaonvunAQ62NtePaRP6sZsKoSZlYSNj5BkH731cfwc9XJUb0EokhXZQqSYrKYw2R2DmcnR0zaJpNMI0r70kQpMEA2t6Et1ozWaAOTgAqOwwZw0xBPUos6hjC10nQyjuErl9A3cgGnLvajQBufo8Rq1RYtBZZtP5vKoD93CUNso7u1Nimryp2Vrk/PfYlgfYj2IGPsi+3UXIldkWplEoC0Uw6UTokkbUyWajSRieP0lSFjp8RoiPYrSsAawhEmA2O8r6cBrjfvglwkfB4fbZXfzLyMdI5tJDMpzCTnMJWYxeXZKUzOzTBudfJjWfqCYMBvJvAq5hZ/UDmvx4s6qvWnZ740gElTqlFVwNSobNaXA6fNKuc2nu7GzWwSKQOWei6jZlbHTBYeJUrLFZRRVZvTmSJmcyl4E1Nm9S0LrWPwqe5FZV7Zloy9jL6HvFAIDSgCUQsF+J+ru0ofbt6WutdYsskMjp7vw8HdDxiTslRZ+74qYCrYf/kiskwLS4JEYlAkAKRGFSAqIzY/m5NmUqSz7IaVWF0LdEG4aDog6HcVJJkqBgWnboH1HEvpKJkFqNK2g6JTeRlnTYTs2PaOHgR9dH34z+ln6UZqAuzohZOINjcwZTNjRm4DWDHu9fspAR7j2+QoSUx6VgCwA7Ldu5+vvndKOPCUS7sfiKAD1SLl9Ko8KeWaNV0sWPt6tuPgrv011VGhqoBJbOvo82xpXIfWNdvQQG9a9scMgYOaSyWYgr5ijO+l4oRxJCVJWS4MXEYNeFr9rHTVzNkqFhRYfmZjH9xyNw5s31uReunPvIOyOANV3YpaGrFNT6fmMDA+glOjAzh3aZCpO3r0Ao92wpIk69sEzyOwAj58b+cDuHfLTi4qRWP8f3b4DJ7qbcP9Hc0UhnnzYPm216qA2YLmysHO0elM0ZYJSC5QaKabIR9pIc1xdTx3aQBfD5/ldYierNdRW0qeABO51XJh/ZV6VlfSWPXo4Vadnyvvj/Y8jF09t5v+czSi/3T4FD7KhvAPXUH85ZZ1xg9cbEzit6pKnmEm9YOxWZyYmMHgLJf0NDddGUvK06mj7Wqhq7GpMYo9HY24p70BtzfUGyMWDYYMU2JsimmVk8PnGbCfxnB2zHFP6FpIZUXG2HJkKw2glWRd/Uz1yIH+8b5HsXlNj0FxjlHAC384iWPT3NXyJnE2GjP8LHUy2sGTJHBJeuHDr/FRhhtY3P/TVJUYvymEceSWa4qfG61+J9hFOoEtLQ14qKsVD69txh3NzgaEu/FBhiLHB08RwHNI0dFV51mmW+zqZNiROFyXK3eL179Xu3WREBqD9Xjm3oNY09xuKoynsnjhoz6cSubgpx0uBMPY0xjEvz+80xnaIs1qsauqkn/17lGcmKUa0TFUyKIB2bFo5oyolxvX71527FF2gvbszrYmPLahDY+sa0VXOYNg+UhxI/f0aD++HDqDs6OD3I0LUGXzBC9j/C6VqzKXtqlFr4YzMhdikN3d0IZDlCzFnaKz1Jq//0MfLtIP9HCSzfwwjNsZKuGN7+6WXNBsLNpsdcB+9PZnuJCiRGVTBGqJVlxtyy+TZyaXzcf4UnYjnM9g35oWfL+3A/s7GhCiK+Kmywy7+i6ex1cEb+TKuFHZAtVeboozKY66zk+Vu/bV95VJpGHX/X2bduDxXQ8Yf1ElPxmbxs8+O8MsBsHimAyFY+gJefDK/u1Yz110TZTqLkZVJezJ3xzGSJKMl5jjckzOYu1c9U6dqVOaOIJHH42Hl+CVmLpZF/Ti0Q0d+F53K7Y1XauyI1PjjA37DYCjk5dRRxtZ4kqWZ4xYoM0xaRgNRmJgpkbTqMHNwxmKhhELhPH4jv3Y1nVbhbf/OjeKnx+7wDCLKyOjBEUOzGXjzqgfL99/O5oZJi0Fln1fFbDvE7Bh6ruHtkuRynLJgqdVR0MqcVNCnw2AKruzsxlPdLfj4a4WdJBZN6mrsZlJXBgfwjnmti5eGcNsMmE8c4VJCq80iMpANDusxCgUezduxwNb70aYWWCRAPq3o+fxq6EpFLkF6OUEMNaCJ9aAB5pC+Pm9W66RelPRdar0w5vrwnDonc9xLiEbxgyFq4EbuZUciDQ2hUReBtvMCCLKfUOp7EFK3X1cbRu4oi2kFPNcE/EpftByBZenr2CaAbgCe6YZ4efgW5hW6mrtxNa1PWgs2yq1cYLba/965DxOJ7lYJeJGJgss79Ui0NuKf949L4FHjxzBnXfdhTrm9xZSzYD99fvHcHyKqxjTNzciYbZjxyZYyAUdVdaoEsHTAAQeV99Wpmj2rmnCn65twd62GDoZ690IzTBr8h+nL+I/z4wgz8yHh5kOzXiJi5Kixn/c1YunN62pNP3666/j5MmTePHFFxe1Xxawq61vpfr8TUeImxs+ZQWcQc7/cvWdAJHSWXsi+yKTZwSY3jW54JMOkaNKSkDKJvnkbafnzIRMUOL+91Icvx2ZQYSSt7U1hr3tTdjNTY3N/DKnjapr7JjT0NVnKssA00+/HZ7Af58dxeWiD3k6yvr2Lk+wfNFG9DJT+y97NmJXW4Opm0ql8NprrxmwtmzZYsCS+6DwyU3OhNcQS3bHwsD4nCbnKtL4HQlh1kE/qgPl6Bl3GlzYKeg6+Gj7/CwbZFgwDxc/J2AlRpv0fmnP6IZItYp0XUpUPS/tmyjOdo9OZXAsPoHiyWHUs1Qn3ZO19Ks6+EFdjF57kKtwkqmecYZfg/EkLtBlKIQitFUZbrXlTTRS5LOf6fRD65vwkzvX80tGR+WHh4fx6quvYmRkhHsEPrS3Oz6a6XyJU1UJ28KVrJgfMdU1YM2ugml6qxTvkFlpJO4xqlJXvQ+9lILuCDdPG8Jop2/VwiBXNilYNsq2oQz9jmm6DqOUiAsc6DdTCfRNFjDCrTkN2OS+aDeL9JMCnAxJb4I24ULCg34GCZ4pwq1ZE1Pih78VuSul6MHHTGypyNWZH+6VOAn3tNTj77Z34+6yVImHjz/+GG+88Qb3KJnKVjukrq4uc13qJG2pCtgdBCBI25IVUJwF0AYwc4cW3m5vrWdI1IS7WqLYTP9Fy3LNRGHsZOHbOSEH0Gqq5Sgp/czFH5+cwxeX6ZtNFjFc8CLPSELOsI8Ml+gOlCi5RRNtSLRJzJEr4lAZD0HSV40NngLuXRPDod6N+BOuxpbSmQx+8dZbeO+998zulKnOdqWCG2/baIsteq0JsA30adqpAqM+ftmXTWDfugZ8t6sNd/O7q8ZFVjPbkz7TTNANiMfjjJhSSCr8oB8mu+Wn4xqidNZH6tHc0sK8Pw0+KcBBS6J1/PnGNSbzepE+4JnZJE5Oz6E/nsLgzBydTi8S8svKq5CP0qsdpDYuEJsb67GXGQfx17Fgwfjiiy/wy1/+EuPj4xWw1K/AauCnBeu71+vxGvtlXpZPVSVMKvi3O3q5lcX8ETdJw4tsUiQZC45dGsXg4CAGBgZw8eJFTExMGLCSyaRhzhpRib9myiwGZCLKzy07OzuxceNGbN26lddNaO/oMK6HUjFdlFwdB9Y5G8biW3ueCdrGfBkwPwGLUPoF+EKSDH791Vd455138BWvInf/sl06Nm/ejCD9tsUMvqnEk8ZQ1XG1hd1XOYKD/f2Gkb6+PgPU1NRUxX8RQ+rYXlXXrKJlW2HB0lVM2MM+r1271gCoVav3ttvQ0dGJMFfrWkkx7cXhERw7dhSffPKJmUSBkqcpES3sXxL/7LPP4sEHH7wuYKpbE2ASfanS8NAgPjt8GEePHjUgycFT5+aDFP5upUgNi/SbZc55c+3ZGly35GkAakt1c1wEmpubsWbNGiOJksZmfmwSjUb4TStXWFKWMWc8PovJyUkMDQ2ZY3R01EiOJk78idSe7UfPutdRT5Pw0ksvGWnX++tRVZXU7oyPov7+e+/jzTffNG1Z6Vk4Y3q/XLKA2qvqqx13WzMzM5ibm8O5c+fMAO3vto4G7ZZSYysJkv3dXtW2+171NDl79+41YKndhZOuOm6qCpi+iRft2LHDzJhAUqfqzD0od6M3e7+wXfWnftWnDjto91X3qmffiYeF7bj5Uju2zGOPPWbu7Tt3uYX3DhoL37qe1Yg6lkrs37+/6gy4qq7YrUCwgFj1t+As9Vu1zjUu2bW7GDv29vZWhKBavaqAqQE1LsaeeuopI8K1zES1jr/N3938P/PMM4YVja8WWhZgbW1tePLJJ83MVNP1Wjr/tsoIMH0y9dBDD2HDhg1Gg2odT02AaWBqUGrwwx/80KinnnXUOjPLBUeDsn0svLol5EbaVf0YP/STdIl/tV8r1V6y3KJWzOeff95ImTq+GeYtk25AbJv2nXUs7VXvbZ+2jH227S11VTlb/7nnnjPuxFJll3pfdZV0V1RnkrLb6Exqdt5iTCayfo677PXuLSgqo/b0LEBEWg2lLpIAHfKR1K9I/SjUmp2dhVwN1VFd697o3pKVfF313kqS3IgnnngCO3dyE5d927ZtvWrXZQGmxixoBw8eNGmRDz/80PRxPdDEsB2MBUiMizQQrcC9XKk0ET20KbKVLU1N9P9YZqG6cJBp/v3S+OXLuMBo48SJE+aYnp42AKo99WHbtv3qWROxe/duPP300zcEltqoydNXwYVkZ+fll182nr8AE7M6RGJUZXRYddI7ee7KOylu1JK+ZdNmrF3LzOdCYBZ2eJ3nNOPVvtOnoTCtnyBeJpiKYdWX+NIkhxgVaFJ++pOfmr+3dAN5naav+emGAVNLFpxXXnmFcdsxw5xlxAImpluYkeju7sa2bduw/Y470NvTw1zj4rFhkZJSGmM2YWwMBQbwpTiTifwamjMAD9XTz7YYXMKzvgtehkm2P/fItDuVYRpH3+MXmM3VhAmwcJipqZukmwLM3beyAcpcSl1kd5qoUp0cmJJya6lywSWYLTCzUaJ05PpOoXDhAsEaY8Y1zewD1XHeJM13RQHOE4QUpcbftRb+u3bAe89eeKnOnnJsOV945e9WDLBaWSvSYJfOnEXx62+QO/ENCswqxKTFBCcv+0TpMB8Fu1TUSpGVaPVFxhFm/j/A0C2pcI2S51U+a303vFTxAHNtRX7a7qPaS91tG7XyuVS5FQPMGlrbUYmqqEGVuKqVBodROnsGeUkR82XBZMoMVAAlZfuobhWSDSzbwcq7pW4sqGynTuAxL+bXOxr3DD888T77Nwjs22fUWSq9ErTsVXKpTivLswZL5vLfnEDxF2+hSLDMJ+MUITkHaaaW51jGbKaqseUAtLBzCyxtVJagaRM3xfvAgQMI/MWPudt+8zZrYZcrJmELG9ZzgemYwttvI3/4c4SYJjJZUoJpvKqbAUrSUpYYzbjsXYITEdh7N/yHDsHL7K0hgngzq6/TyNXnVQXMdlVk6rrwLv+SjMnHMG0YR0uJKFDamNzjkwFQAFiJsdcyKAYcvdMz64QoRUGqoChZH4Z/7x74Hn0EPqaZDa0CUE7DZIGGVCZ3dcg2bQdO36hw7DgKzNjmT59BgZsR/MLIqKzZl2R5/aWcZUhWx8+62lfQRpvKpPi7l45tYMtmeL/zHfh274KHGxiGCJTqai9gtWh1AStzrW/1Nfir1IPGvkgns3ieX9MM9KM0OoYi/7C+pP/zCTdzDdHT91CC9NGIjyufv2cDvJs2wUs/jhsIThmdJVGiVQTK6WC1Jcz28kd0XT3Z/SMCyT2UW4C50ajh/hZgNYDkLnILMDcaNdzfAqwGkNxFbgHmRqOG+1uA1QCSu8gtwNxo1HD/f3G9wi9jqPZ/AAAAAElFTkSuQmCC;" parent="1" vertex="1">
          <mxGeometry x="681" y="339.5" width="53.83" height="51" as="geometry" />
        </mxCell>
        <mxCell id="-d85q1kpaTbKizXLM7eA-47" value="" style="shape=image;verticalLabelPosition=bottom;labelBackgroundColor=#ffffff;verticalAlign=top;aspect=fixed;imageAspect=0;image=data:image/png,iVBORw0KGgoAAAANSUhEUgAAAJUAAAC2CAYAAADQms/XAAABRmlDQ1BJQ0MgUHJvZmlsZQAAKJFjYGASSSwoyGFhYGDIzSspCnJ3UoiIjFJgf8rAxsDLwMcgxaCZmFxc4BgQ4ANUwgCjUcG3awyMIPqyLsisZV8XHdZK+MZ0880XhTkPlR9iqkcBXCmpxclA+g8QpyUXFJUwMDCmANnK5SUFIHYHkC1SBHQUkD0HxE6HsDeA2EkQ9hGwmpAgZyD7BpAtkJyRCDSD8QWQrZOEJJ6OxIbaCwI8Lq4+PgqhxiaG5uEEnEs6KEmtKAHRzvkFlUWZ6RklCo7AUEpV8MxL1tNRMDIwMmRgAIU5RPXn8+CwZJRIQojlRjIwmNUDGfsQYsmZDAw7tIHenosQUxNhYBAMY2DYe6kgsSgR7gDGbyzFacZGEDaPFAMD64H//z/9Z2BgT2Bg+Hvu///fM/7//zuNgYH5CwPDfj8AqjBhQrh0WSYAAABWZVhJZk1NACoAAAAIAAGHaQAEAAAAAQAAABoAAAAAAAOShgAHAAAAEgAAAESgAgAEAAAAAQAAAJWgAwAEAAAAAQAAALYAAAAAQVNDSUkAAABTY3JlZW5zaG90hvdwkgAAAdZpVFh0WE1MOmNvbS5hZG9iZS54bXAAAAAAADx4OnhtcG1ldGEgeG1sbnM6eD0iYWRvYmU6bnM6bWV0YS8iIHg6eG1wdGs9IlhNUCBDb3JlIDUuNC4wIj4KICAgPHJkZjpSREYgeG1sbnM6cmRmPSJodHRwOi8vd3d3LnczLm9yZy8xOTk5LzAyLzIyLXJkZi1zeW50YXgtbnMjIj4KICAgICAgPHJkZjpEZXNjcmlwdGlvbiByZGY6YWJvdXQ9IiIKICAgICAgICAgICAgeG1sbnM6ZXhpZj0iaHR0cDovL25zLmFkb2JlLmNvbS9leGlmLzEuMC8iPgogICAgICAgICA8ZXhpZjpQaXhlbFhEaW1lbnNpb24+MTQ5PC9leGlmOlBpeGVsWERpbWVuc2lvbj4KICAgICAgICAgPGV4aWY6VXNlckNvbW1lbnQ+U2NyZWVuc2hvdDwvZXhpZjpVc2VyQ29tbWVudD4KICAgICAgICAgPGV4aWY6UGl4ZWxZRGltZW5zaW9uPjE4MjwvZXhpZjpQaXhlbFlEaW1lbnNpb24+CiAgICAgIDwvcmRmOkRlc2NyaXB0aW9uPgogICA8L3JkZjpSREY+CjwveDp4bXBtZXRhPgrn1UBOAABAAElEQVR4Aey9B2Bc1ZX/f2bUm2XLliz3jhvYuNuATe+EmgRCAskvIb1sNm3TdtlssultUxaSQAJhAwmQhBZ6Czj05oZ771W2LKtr5v/5njdXHsmycRlsOX9fezRv3rvl3HO+99xzzy0vVlffkLRj4RgHMsiBeAbzOpbVMQ44B46B6hgQMs6BY6DKOEuPZXgMVMcwkHEOHANVxll6LMNjoDqGgYxz4BioMs7SYxkeA9UxDGScA8dAlXGWHsvwGKiOYSDjHDgGqoyz9FiG2ZlkQTKZ8OyamposmUhYLBaLPllZlhWLWyz+z4XhZDLp9cskDw9HXs0tLSZJNDcjp1QdJJucnBxLJJIWP0Q5ZUzKzS3NFgdEebm5FktxRgTrk5ud7RVobmo+HDzLeBlRPRIwPGESiBqMghqNnh0NIdApGSQAU07Obn3iz6hHTlY2MgRsyPJQQkZAJQ1VkJvndOzcudOZHyqh77q6Omd+cXHhIRN8KJU90LSiXQwGOtbU2GjZWXFaONdNjd5wEgBMwDoagugUoCQDhSCTQLsaTM2uGv8ZyfLgG0tGQNVMdyfmN8L4kpISKywstCy6vAAsUSqiBbgste5USw8V6ozfworqlUeXkJOtbiHhgmhujlpxXh4amTiJREtnJH8PmtQA1KtJBnl5eS6ngoKCVhkFWdXX11tDY4M1NjTskcf+3jhkUAlMRUVFznARq/5YfXM2XV4gVN/eUhCIiD5U9bq/lTuUeA31DTC+2OltRDOFRqK66LNjxw5vRIUIphEhhPuHUubbmbYFUOXn5zudko/kEb7VYPRbdZD8qqurU7+jbv5A6TpkUEnr1NbWOhHSVCKwpbkFG2p3vyyC9VHYsmULz/UsUq+qSGcL0j4ClIAjQahFFxcXO8MDveF7+/btaDLZJ53YaIfHqtOuXbuc1ZKT6A/fQTZ6KFC1tCSsqqrKu3xPcIB/dltrB5gwRBeoAizUGmpqon45Hf0hroiXpopajAzdyNgNzzvLt7oKNQrRG2fUqhAYL2GEa3030E1IENm0/s4KrGZkJJNEoBLNApNG6JJR+7qFxiI5dunSxZ8f6J9D1lQqUMQFYnQdAKUKBAHouT4SgmyUSG8dKLlvf3zRKJBIALquq69zIUgbh3oFKvRcYfOmzW1adbgf4h3pb43KQ1cnWkSfFIC+0+UTnqk7l5wONhwyqESY7I1AnAjRdWCsvvWRjSWVmsQPsrOGESL3FEI8/9EZ/kCXWnWojzSWAKXWrRDqJroFPn17fVKtPsTxyEf4z27eJlvtpHSS0uuiuOG3unT1JpLrwYRDBlVOTq4DRq1YTE4PIlQfAUrqdPPmzVZWVua/g9DS43eG6/Z0qU66Fz6hTvqtaw3NFcLzzlCHQINoUghykRzSg+hX0Lfi6PmWzVtcS3fv3t1y8DkeTGiLgoPIQZ5YqVKNGAScUIEgDKFdyF+9arUT37tPb1pAtgtBxYWKH0TRb0sSsVn1CCBRY1EIYPIf/FH9VO+NGzdaSXGJ5SKAzusqiQGYaMQn0GggJfqDjAQm1XPt2rW2bv06Ky0tdW2dwlyo8n5/xzKxRUsji3zcCQsXLnQDUKMlESpjUH6RYMwef/zxTlhWqoL7TeVhjOjgoT5iuBqK6pIOrAA2AWrdunU+Qhw/fjygg8iURjuM5O5XUaqT6JbTVoQuWbLEu7dcepk4Dl0Nnmp21rh/Ssa55FTvA5CD6/4yAiqvmXM18t+I2fLetiAc+a66detmffr0cXAdTkAFZu4P59vGRQgkWr9+vSeVO0GNRHEEJglBrhGBbsCAAaauIq4pDoB4OEJbWve/RKXTfJ9cINKw27Ztczkph6zsLOvbt6917dqVOuK3OoS6ZA5UEKZ5sZwU8tXtifnq6vILIqdbPH5wyN9/tu2OeSiMV6uWW0EaeM2aNW6oC1S6L4NddpSu1VB69e6dGhUePKAOltbdtT2wK8lJU061NZHfqrCo0Bu8jPOWDEwoZwxUgTH6jq7NnZy6jox4jRBpEbKn9tUKFJ+5RGk6xVf6eBwDE5llk3ZfQXFbaIkKKjOUo3Them/p5eV3n1tqwEFWlC+gRNNL6sIFJjUWdYnSwNJgatVRSBm9/FB58bcYOYm+QKvSZwFaacEIvPsGqE8KJ5l3JJ3ALVpFl+qo3x0FlSe+JqEXCXldpVlDeaI+4vW+y+4o7/b3MgaqthmjZjUfyHBchEsA+qhiEk6LgILA2ncXgdFBcKqkXBDq9yXQKL9sHI1twRXF01QDAkU4Sh/SSbMoXzGtI00pAQnjgc6Eq34ERbnyUSnomQSucqLf6uq0dKTZy5MLQsavP0tp6ibPN2sPWhUniQZ0EEBwOq2yQb0czwnHqwpJCw586JDPyfmZolVR5PZQUB3bA1oT/prFUH6iVUFy0EdB9dIovn06f3gQfzIKKhEnO6oYwjWC8taBQNu3nuKiYtN8Gk2r9ZniZrHuQnkEn1AQYqiXRljKy9f8pGsCmCYma1CgoLxCmfpWPhrR6Hk2zFPQfTn5ipm3DI7O9HSKo3TSSvqWlRXylJCkDwQqgSDEDc/1W4IXwH3tUmu3H6120FypaFH89mUqrWitqal1OyfkKfAX5OdZbV2t09NROgd30JzkraAuXF25aBFf2/NU+YtW1bOmtg4te+gmSkZBpZZUSL8sQLnzDGYKPGoRaiWhQvr2SWhsrlyWzOi3DMhcKqfWWpBf4OAMPiDnTupPAJYAqSBmazlHGKlJA0rDSOBBIPpWGRrZ1NXVe4tUV5eFVhGjHQB0WU3QkN5609OpTrl5kW2IqvH6CFBKqyD7UYJWUFlKKy2kEE3hyE5rdr4oLwlRtPqKAGhI54/y0eBGwJJW1m/ZQIFWlalr0RrK8oL4I2BJa+UhB5oBceqdRtEqvqoLFF+VLj3ot+gVrVG3n/70wK7b6tcDS9smtohKIMioi4pWKmhEIQ2iIMYojj5ioEYfakt+j2cl2CeqrOIrncCjeOmCUj5BG5GSZzKmm90PpvhidkirfEPQtYS8detWB6/uqwEovvIPZabTGgAlRovWEFfgFyB2YeTqXvgoXqA1lCugRWWhzaBBvJHApTWUTrTqWsH5QBx9657KbGpqcLpboFX0CBiBL/oO6dK/NWuhBq3+vol0RYVFDvhQx0BvoDXwRt1+U2OTfzzjQ/iTMVAFGtR6RLBaUvgOz8QYBTFNz7QKIKzFkoYSiMQ4VVS/FScIV+n0XL/lmdd6n0RLJATdU9zwSddSShfykYZogK5mtKeYGGbtA83hO9CptAqiSQ5caSiBQ/kIECpHeYvW9DJDetXTp6ZIrzgSqPLSJ9RP6VRfhZBOAHW/EXUUoKRVg80U+Kr0ARCemD+hEarhqcNWI5c5onzTaVXaUJa+lU9Obo7TqvIONbS1eA8hN7VgtYbQZUlAQUjKNlRC12Kqfiuu7AcxTa1alVMaMU7X6UwLv5VeTFNZwejUPaUJzFL+YnBIr2sF5a1y5ahVU1a8cF/pA13ptOpawBEA1WUrhHhKE4QVytK3QshDtEpzRFow6g6VXnVXnJBXSBe+fQ1XfVbrkhvF0zPxSeWKplBOSKPfupb/ybUVvwPYlS4AUXFUdkgXfmsOs0tpl1a+Kb+DCRnTVIxVvCUGZoqYoCHCPREfKiCmhu4hvYK6VroQL6QJ33oWBKJ7Culx9TwdUCGd4imdnisEmnSte0G4gZb0dBKMAEkiL0tpQgjCDunSvyV8fUSm7iuugq7bl5meTuUF4IS6hHT6bl9mOq3iaXiu+6HM0D3rXnpZ+q1nSqdy9dsJphy/VoEHGDIGqnhWrLU7EQ1iWiBev0WgPron4kML1jPdU9egkC70ED98K566ITFBc1kh6H4Iug7x9a2PBFNdvdPtBQ0MQvz075BO8RVCHmrdavmyo+SJVjyVH4J+h7ThW890ra5PcbX0WCGkC3mnxw/lilaB341tBgbk1JrOM9GddmXqvu6JdypTGlX8UZ7iayinfbpQpu7LFNG3bLWYdj8cQsgYqDRiEJFiipgnAgNAdD/9mWwiMU5dn5yhRHahhTiqj64VAjiV507mpzQ90rNnT1fvchgqXpggVfyQTt/6iB611s2bNzEiirpMpVOQzaPnCiFduBb9KlPlidaKigrIjOIqnYLihHL0O9RXz9VdCow9evRAsLnYYNmuDUSrnituKDPkofJE64YNGxwMAqPoE7AVVJ5CiK9r5RN4vmnTJi9D/NEoKNRNI2Tl3T6dfqfTqhUkSsNtD6G86Nf+/80gqCJnnQiVIBTUSlQZfXQt5mheUCMbCUn9vhybApbUfVj3rYqmp1Pl1AJXr16F2yHXh9vKX44+PdOwfLcGi9IqD32k1levXu2asVevXn5P4IjzTEEjQtEcygu0ypDX3F+g1e03ytJykECPwNY+XXi2cuVK96xrLk0tX7QqrkadojXQp3vhWvmJVrlH+vXr524BCnO3izSlFgMKRO3L1D3RKlAJGKJBqJILRDzfvmN7NLhIyULpg2zEc61OUB7l5eXQsluzOYMO4k9G/VQqvxG/SKRRNqcMVJaEILTGhka2AO1ytV6Kv2jEyJGpkYm6ktQWKEZUixYt9goXyM+CMMSUWpxyNRiRYsaYMWO9NQd/CroChrTYihUr6VabTBsRpBXEpF27avnUcL/FhVSG7yc7tZUsKjOaetmwYWPUvbmnPloirO5HabU7aNSoUdYoDQP4VRefKCfu/PkLEEIW9cTn5LRGLgONDtXiR48ehWyDrUn7Ja3cBOvWracRNbShVeAX37SSoE+fvlZZ2RNwwBsAojLlhW/Ax7aKhuVdMaM1AUf5hHqWlHSxkSNHwB80NLxSUDqBdv78+fA12wcMok0e/zocqTJDBPiRyMPBnXIOe+KD/JNxUIlxzc1yKyRt/YbN+HMiz7rmyAoKC1xDqc/PoiIJGCZVqYZFMpyBgAhgVNFt+Ay6DMfUNE0PWlE5XYl3QUoAmJTGQ4wy8bEICNI8EpA0jUzyUkYzlXQHWTBL3uIYccmSslSmBNbigN+8ZSsMriadhvwJgJKHYCtdgHHZb6KVNJ6WfOX9byLuVrryKjSPAJ10YcZ91UKPinJiRV1oBPxQT2ilodRBozR6PdpJtCoUs9ki0qY5raDQfTBAbSNeNVLPDWj6GmgVuJub4WuK1kJ8UjE0f1hXr7TKOVuEk8OmjZtsGxo/ndZoBUkldcYXFo+0lNIdSsg8qKCmqRlmxvB3tFTBvAafqjAEWFjIElV1WRJuVmmHdCdbdlD/FgASbeVSK5VtkQcoxLBYVreO0zVtByDRpKm85mKSbBkxXDN/2dm4EeIle6RtgcaYgyHmHmwJCrHQ9UQGa3a2yt0LrZTZgvNVTsNGQKWQhyaU9orm4EgnRLQLqmMS+lrQpvXwR2VmZ+WguUSrbD1AHN9z00GihamdpHaC41ZBC2vAo0amOupbZkQ8p2u70lI/W6qJjwsEWhsANU3SeZqXR1nZ3eCXusSOkx7o3QyDSqqD0VBio8UbVsAYRi+xlJHJfbU2/eUBn6h1SgO0Blc9PIvJiJWjkzjcS8KwqK2mxU0lEuiUq+cj5yT5CVyRSiEPxUM7RWWmEu3xJa0X6QL0GGlJJTIUL1X2Hkn8hmKQVp6CuNLxDfAjWul+nB5+poKX4fVNpdPzqBSP4fUQf/ZZpqKK3t0pnQNex8iU0PM9g+hSeTz1uvqlJdFOlkCzZ/fnulJP+XjNowgH8TeyVg8i4b6SZG39hWX1mcsmP9RxEzP96jPEYzUFWqMTrnsK7eufTeXRHFaHo9Jn/mGg7rEmCz0ePRNH2wQxgY+aMC0/Rmuk+ZOOQvMpE61jdBMuCWdYWnoJWfk2kKae7ezqirgV0Rq5Apx+L4946UAJ9DTWU8/IB5UUqNDIlsN3M+W0oVUZc0906lNLea20El+uB7SOaI/SpdGp8kWr8scecv54t0kjykWMBaTlkZfptLb7I1rF81r4o/TCF/eS2axa6E5Xum64Nff4XrtEB/czw6Ci0goJfB6MfmwL0zX6LWUloIiRiqLvfYaImWp89JppobUtY88wYuNZXjb3ouiOz0buN8G8HMpokzRVZrinJOnXYnj6vd2Fkg/yEB1eDhxL6iUZiqw841xIQCEornCZVn56vrr2kFae7gWac6lUOl0N1Eesy0nd9/QhLWU5j3ST69010nVHgYiBVo9vlqvCqvnhWkppQukdpd+/e5kFVcRNay79gNUtX4UgmFBdv8niZUzLlOK32oHgmlDWqlBKyO3JFH9itGZ9YxXxT4ikol7XyMhWmtICbhBpfQ1ziPVxGihbq7KS1ouZlOJ87KM6DGIY6L2REvBc+TbEcDWY7CbKoOXvlYUiQB+BhnROBrZVy7YdltWXdEgjuRNtiDaKCd17ZKTEURYqNwEqWyg7l4zUXYX4mFVOY3Eh+aFA1laz5StStFaaR31QJPk5Mauuk0kAOSkwOG38YY2F5WC/Os/2pz4obwciZSSxv+qKGS1X51nOwA85vakWEV0f5N8M21Qpuqi8NHW8muWqP/6oNa962XInMqKZgAHbn1ohcEvfqxgYlaqEsFnf9SxrKr7Y4ltvseLaV+E8TOc+cvHW9uu5XezBBX1sWXVvGF5Gr5FjXXJrbHC39Tax92r70Mj11q2ENDDPQUxzbyzoY43dv2Atu96w4h23R4OJjhhHOequ/VMvcPQy63MF5V5g1R8837J6N1j2OFZSTGK01BPia1WfVKWVX3p9yKsF10BD2VXWlDvFcrZ+3wob13gcrw+9cw1l/PKNcntiSS9bs6svvXAJPWGWdS/YbkPL1ttJ/VfZ/xu+1XLy2tanoWScNXX7oCWrHoRHj2CKQkN62aJFIdRHvKshTs4Qs97vwtqfZLVr1lt86ikeLVN/MqupUlShkyzGXFkOra+pke3WT7OK8iW0Qy9m6ofhQDydFnsi0wgSnPiAOaIWr6VvcWmTeIE1FH3MEvkjrRZnY1HtR/GaYwIggCXbknbNA2fZ2trT7arTJtvVg0vst0+8aU8/vcSsKN/mLsm1e7Ia7JZZ8+2HZ9xn5w3U2irwQTk786+xnOJz0QQnM8J6ygrrV1kCjSmt1RrUGhS2870Ow3VDL54eb7GrrrNkr1xrXs/ukzn4gWayerNPs+WOjFvumSxlGYlvTNmE+gDiUJ/67HJr7PJ5tGmu1eVtsoK6b2I2aduU2bOrsu2TD1xg9fln2HVnT7D+Pcy+++dZtmDeelvOSPK1Bbl2x6vVdvuwOfbzM+63E/BUhPrUFH3KsgunMRKstNy6f1huApcIGrG1Pt6yRRNEbYXZa/uh2qlT6SmWeO+1uFk2WNNnP2N5v/8jNhkq3lufKn9oIevrX//3/zy0LNqlVgUgLnvBAsvqVmYNf3/IWhYs5x7qfytd0lKWFCOQhkeZaN3C8Bht4j6+/GikJkHk0PHVMVTf1TTAujT81vKalnlv2QA4Lrj7Epuz6GT7+jWj7d8v6mW19TV2298XWRXrm7JyQWcus//xZtu2ta8tj02xM3s/Y101NlBIrrXtTSdYTuMTVlL/GACmNOiKyS6ji4k14+rYwODizXEWWzjVYptGWKy+v8XIO7ZhmdngoVb/+5ssicNRA9MEEwdNi6jPU5xm8wzW404aThdEqrzoHh2eApkxl9eMd58G1qXhF5bbvIVuLOZd95m3f8A21UywGz420j40vbst27TV/jhzodUz/I/lNFlWXrSkee2mYbY6PsouHfgS3R2ZEpqT7OhpHGUFDX+2ovpX3e6Tr8/rghEea+SztpvF5k202OIpFttyHEZ6b4tVMTqvrTar7GWxH//Emmrh3fTTUKnwr7V/9SIO6k9muz8HFKzEwZb9f7eZlXWz5iUzrfGpFy1G96ShrAdoxzuKZYMGoblmj8PgPov1VH1Tz7mf4hsXkY2fhaCeWZNrZ932BcthVNi1exHTF1m2dh3MUdBIz/NHA3DZwsjqHWeMtBndfmCfGbuA1o2vSvFSRejLewWEm6hCq8wtphWPBmRMq2Rhv+ihkKOP+pRGED1iuNXe9UdsQzabivlCjTKiIpGPjLK7oLUmc3rgqazm7J4qjjgOMKLqgpzQujH7xet97fP3XouXv4XplWInf/N6lkRjCPqIN8WvHOI276i39148xt7X61N2Rj/NElCfUD75pQ9okhuo2zwK3zKC6ShpIOxHl40IEcEkZAQYH8/sxK9utzoaf873f0KX2EcV4XErtcQ98JD57g+ikmiZ2tmvWf6K5ZZ//WctX8TKPdBKKxfNGq7z3W2FJYv5xLe4NzsuTtGPNOR2scbs4y2/4TVcQBj8JO9d1GxD+5Xa0qVVTBBzuoyMfQ2VFVICkMe8pbbZunUttCGV3awyviniE1FkntcWTrScllWW17DBkzuzse9aWnZZU9VMa5oNwHbh/sRIdpvKMyd7aIrNfMq6futbFnv1JXdXUHoU8KlZC/XJQluVLbdkAbuxW7a5IDUKVBn1uRXWlD2QLvdV5Kq1UWbHdauxil5ltmnNRuYYAZO6nzxahEKoD7eadzTY4MEVVkzDLMuLNjhobNAUy7H6wkmW2/Sm5TayiFANRH0wZDSjDZvWP21N88lLdqW0dYpV0mYJXCD521cjn/+2osVLrakIUKvcDITMdn9COMyIQaA14vF95BHL+/yXaUVMr8xdi/VNq6nFh9OIJugxz2zQyxjAKy3Wl+6lm8ZEUXoxq6n3Ny1R8XmM2GwraXyeCsesez6Azdpom7MvtNom3BUN2pUCwwCSD8AQipymY0b2sXOnjLKsnb+zjwx/3XJhthrortLLLGvAz6w6OdGyGx63HDn9yDerDDtkBN3uUK4Hwvs8lkWvZKnyBsrTCI9PYhffjaym+PfvY5/QdS/cSleCh34Xc5uGoHvOMhv4OvVZa7E+dME40xPYTbJvGrK6WHO/m62l63W4lzZiqL9JqTHrX1Rn23E+1uTMYNOBTiPEsy7Be32cG6TOsjMmDbFxwwdaz8Zv2xVD1nlaqdldFZ+jrOuxEXtaXuOzdOfRsuN4RVSf3CHUZwARaeTNK5h+2pKqD8Z6gq46e2Bvy/3YZ6wFT3yCCWwH8iFqKWEy85pK3UILw+ZLr7bmp5+D0AKzM07lvJ11llz3pNmQxQhgKy2Syqp0hJ1kWkcXYS6QiS98kRjrOzUx2p0ntKwUYD8+ao6V537d7u12DbZDf6uuL7CdDaxMoNyepXGrLGmyjbTA3g032ifGzrUiug7N8amEliQbH2qYVmkB3FnskmGaRa072UgJjN5ipax9OkXdV67lX439N4fFck/yeZPEGjU1Y6MUMH1y4eUW277BknUvRfWpoAvOTtWHr2RTVB91I65wmCKqb9JKDJwkse7cjmjKoUF89YQHrWfeCptZ/i5suz7UJ992NbC3EIdmRUnCuhc12qZti+3E+PX2/nHraDys24ccyLbGJC4O6GqmXpFnnDlX8o6rLsSJ9aQ+/ZlEPhneVtEIX6cuTzFfuJzyqXpOEw2iPsdqh422XPX30pQZCJm1qdIJaqFPWfIMQ/2NOFrWmW16AC0D81VbcUUBOXUUFKU+u4CR3zgrbsAw1dAvLQhfcmA/tqrZXtzYHeO7mwuvMGuHndB9m53bP2k9imAQ+cvpLAEotPC9Mz/q/ooaN0U3U38VxQEgmsRbfWTA853YyMDicXavzGq2Ljd8GwP4TUtse4B5thRdSrOXuvDEq7wrpxvd+TArrn/JstvFVRk7cSs8uCJps7d2t5qWrmi5hJXmVNnknlV2Zr+4FeFOUBlOYyrPRhpSTf4UK2yabfmNnKeVqmcoM9RH+WukrQGJ7iXQwvUPs6sov4dlf/YbaNDpDHDoQTIUMgwqcQtBNL6IPOahjlnYtmMht/j4ZG464cRNY4LXp5VjPBAok4x8YtIq+BL0TGhScO7xOxuNyIfIfltGUIyJUbfXZOd4SCFYaTW6SWKL0b1aFvm6NU6kkG8qRRuAKDkaNVlE699F3nVo3pzV1EcTvuTTGvZVH2hpoYtMUqcYXab67Nb6yA4iOw0IvD4CKnSqqiAh1kwZ+uiG+nCFkJYewZL4AmPwFc273/Uhu2QJeW1lE2wRg5N8NrE2DbdE3onKnE+KzyrrIEKGQRVREN/wUcupWGqx9UV0Oew4aVEtJJ0UU/aXUPkafLa24wSySfHVEycwAcEH+6rjJPCLPKUqA4D3Fq/9feFW3nUlTwplAcjtI+7ltwNXKmPv6RjQQZbqkqqP6gLPgqbtMGfn0QHyVmIgSTyH/FljlazAl7epv7VU3pjiT4cl7ffNzNpUqRYUiw3AMH8RS3ILtk5kRO83RZ05ooQR8Ps20Cl9dFiD6gOIYxv4rpwWASpowUMgJLOgEo0Qeu/ay2zVkrVWYOvQVBi3CKLVR3UIxB5LmjkO+GCB7GT21yd7WN+Wy+0CvPXy8R1qyCyoQI+ccr95uspmznqfZTXsYmTyNjbtQ639sfTYvvj18gptwohqO2cM2+uD3+8QeJNZUEGItFJxIRPH+TgXmTLJkuFzLHRaDmi6KJmVbyVFDKoyRGXGQaXuT8P4xhamXxIcenHEQCUwq98V0HH6iWHSms651LMMMfFoziYHnnAgko9AnUcZqEwYd2cgqyOdBSyJkAMhuhagdINPQqNIAUr3dc+RtZ8EK42i6k/quvX3fmbx/7No/0SgEmjSpAeA5PvJYmXA6cOfsmmDXrSsuhLuaUifAkha9I4vBaIIjJ61rhUEzjaF+d20P6n89UVZkQ9ceUW/0yL+U17+E4EqElhMo026XSwFxjX8ZbHWO4fPs3eNnIWLSqsuVWVJNx2BHck2xNGUB9f42nyyx7Wd0jpCOkoY5Z0CY5acmkw5xTAHIk35VuXuJcuj6PY/EajY/o3nuUfJBpsy6AW8+niYEXwiR6fJZNm5A7dYfvFm9067omkFBeBwfMifltJi/hvh8y17LNaUb2P7v2qj+s4BsAGUe5Oy8lNCIM2EcrKxyHqXL7GuxUxAB2B1mFSFKq3gzrIW1oSF3/7dYZrOefOfBlQSRAxtUl5UZbe/41Hr2m2txQGDwvraAhvWJ2YjKxejLPBRu7YJQgQ8Ao4i1ncBCNhfqecxQBZryrM+lYvskff8zbrnsY6qWXvsJPxU+hQQIsHrfio/8slCS1479XZ79n2/t1GVCy0O0F1zqaw2IZVOVEiziYZdbF8PtOi+ilMd/ULxo99tsukkP/5pQCUeJ+neNtX0sFKWNv3XaXfiyGuy7LqutmJHVzV/+95pj1lOATt9Eviu+R0BACEKCGiRyyfdbV2kURCmayhAWpBfY7de+EerZtrujXUj8RaiQShMrpO4wJUeHFDSULhUsprtu+f+xn592UK7d1l3e23JSaxw2IEzWAWnB/JIAZGjRGgIBda1ZJN96szfWFkxK0Q178cUV7QHkg6YdWitYNsjr/R8j9z1Pw2ohJIEgqyu7Wq3L+huH5m0wz449W44m7Q31g+2mm0JO6V/wr555u8RCovwEEgMTZKlb35/8Yzf2W0Xv27XnviYT+JG2ihuV41/0E4ZnrTb5/W2XRj6CYAa942j2G0NLD0OXZoDg4GBcEZ+/37GLfaZk6rspaUx+/oT78Vr3X6eUkIPoNSqVNlehTZm4Iv22od+beN6bmTtVZHbhF4e4KKGduLAV20Q3Wm8id/Sap0w/FOBKpvuqqWu1P4w/0TOKEjaz85aZN+45H9s7c5Ke3wle51QEp89cav966m3IcB8ltQwmcqaok9N/4N9a/oany++dPByej/5beIs8V1j35jKYkKU0ysb+7JevdTyZewj7IKcWhs/7FnrU87EuVZGIGAtyEuiaS4f94B9depG1oMl7EtPnmm1O1nam63Dz2C3VFxr4DoFxgSAmjDkH/bse//G+rCYffGR97ElnhdXZqMiobWkYKf99B2/sZlX328VxToaAG3aCsrWDDvFxT8VqDQllMzfaa/T1dwymzMXqN0Xp2ywWy66xR5eMcC2sUpEcv3OKcvt82fdTK+SZZdOvM9+dNpya2Zhm8z0xhagwT46dUOfnvigVbCRYecOXga0owdpdQ5BgY0e8Jr96opf2T+ufIS9ecqUhXHSGgh/SN959uPTX5eyspvm9rAXlk6zRK5OEeaGd5e7tZPssjjdaRxjfkDveXb3pY+wDjBm1z1ylm3d1t+yseGSuERK6ZJvu+J/7eOTttmXZw62lxedxK5k3j+oPDth6JxUHRSjEBZaQL7zRoT8jaevspfWognQMuePwLZCWH9ZpLOiyBwz5fz+62zKcTPtV2e+5suspEDQN/Y/r01C6eRwhNAWe8fgDZwxYDZva7at2d7LqTp/9JP24LvvsSvH1tp1T4y2BcsnA17gCNiy0SY3nnO39WI1tXrIm2ef4nNr7qdqY38JWHS73JP7o7Cg2n542n3Wqyxuf57XxV5ZfAr21zbf3lbI3r/fXvprO394oz2/JMt+9cIVAEpHVguk6VrPyesUf/6JQCV+Aiq6BctpsKqd5fbue662VzbAeHZFf23ym3bL3Ik2dyM/0UrXPzfD/vOUZ6y0SGdx4k5gZeUXnxpmj847G2N9s31y2t02rAwlRO+j9e91gGb80Oft9gtnWs+uMbvvjTz7y5yzLL+wygrRGiWFW+2/z7zFpg/Q2xWStpGdxqu39bUEWkgaUfs5cgFfq3GPlsqRdmsosLNHP2YXjNCbrBL2vRfPBZF68wNHf6PhfnnRzXbhEE6VYe/Hl549FdqLWDJMOsdT0HqdAkutRGR87q8157f9IsVQt0kil4C85THWb7XQ98htsHnVeJt2a2/7IMZ2r6Jq77ouuedKO758hZ0+YJ4d373JOJGHs8Zj9uOXKuyBheOsHFfExSNmAjiWQKfC8DJ28fRcat+d8TDHIXE+JmlumDXOPj3tHju5DygFIOPL661HMdvvWe8uELKN0U4Z9Iq9mVdt27DFdtZgVzUXAHg2RWAnZTOoaMaF0bf3Avve9Flu4D+8vNAWbxzqrohsNNG3zr7F3jOC7pW87nizi81ayf49X+kqwhxVKQo711cnB9WewBH72rRPdSsCFtogKa83W6WS+dttSM/FNrJ8uQ0p22TlhfXWBWF8dPw/7EV2HZfmNdgpvbbYS+tz7bxhTXbHnGJ7eX0fe/S9f7KtLBl+dGWF/cez/eyU3ptsQLcG+6+ZE+2yYbMZPVIWRf3fnG42uHS7fePUVRrSUbY+OAToatUjaQ69lPMc/nrFi7a26gW6z3x7fUs3m7up0l5bP8yWbDiORenl1qvvbLvp/DttoHbekO6GWSehpHgDBoV8lMHEZyewvYysN7C0/9svnMPuIQYbubLhNDDQExJ1wtDJQQXTnHewmZbrw3dnJZaTM5UfPI9hYwzpucom9FqM5lhmI8p22dDSZuujZeQI1/NwZ6XZdROqbD2n0dwwZ6B9fdIKe2Bxvv15yQj7v4te8YMw+hUxbK/YYE+xcXX2plK7c0FPG12+3j7BThbJcNP2pC2qKrePj2VDnWQKkHzmBzlLQ7UKWnSzhLxPF17h1rXBzhnO8sqmDbZq+xu2YFuubWZr17jKGhtVEXXHOexoXrWD4yMx/P91+p/sK1NWRSuP0VL/9vQ4W7n2BAdUwgHlBamwThk6MaiQSgAUGkhzeP16LrS+pVusAoO4ku6sX0mVTei5xYZ3a7ISNkuyOdjW7eIlRRgwJYBpE3scStkfKO0hMbDd0HJp7E+sLrW5m3vZXYu32N+WH2c1TUX21WeH2mfHLLH+ZQiZLuz0AY02o9cmq2rYbD1II20kbfLyxjy7jy3xMuqbZ8U5+oqXEkBbt/w6Ky+otZ5oxcqiJn7TrbJtpksu3gTthBH4sLX6s82/fzd2e8b5yL6nrGzQqLMknrv6bmugnF4FdKGArAlb8N+eOs7ufPUd7NWok2uUiqgmzhi+O2fopKBKMQ2DNJuurRiv9vVn3WIfGb2N04Fhanu+Stqp8NiqEvvOCxdh6GbZpyY9bP+CX0pLmdUl5YMEOcTPG7CDLq4ebTTYbjvvNbbex+zLzwywaX94v33tlHvYL4gfSN0aQYCS4a0QZ4/XfUuO40jqYfbLrQNce/qD9D/qihF6QfE2us61Nqp8hU2pXGXH96y2E8sarDtdnQeBDABpWa/O2hJYyhk1aueOKjhvY8yuf3aqPTDrXEagANCzFahSvFG0Tho6KagiwchBkMC4bS7cYSuqu9odC5vsncftZBQVcVONVpfIRrayg+PsATtt1taXrYTDLd47Ygs5yA9NPOJKgMyTsCcwZr+/lB3FSofR3YxG+O6ZKzlE4zn7/F++ZE+uuN++f9rzNpidyxopqgwdHCtwzdo40B2ZMba4R0+US3qIhF6LEb5gTTdbuHKc3YOmjZdsthN6LbDjK5bb+MpNdmJ5lXfR5cXQlEcJoH5ndcJe3JBvj6zqa3fPmU43PRj3AcM+BXchdH5AidROCioxDzg051tlxUL77YV3ed9zfHeOiUZTaR288JHFH2kh/1Z8ANOb7uXH5y+LkFbPc7kLFFk5EtcX/HOvSTuOue8n7nFfp0j+aPoi+/uy1+3BVy61V9YOtW+dfq+9bzRnHKBV/KQ7djtfMOQ1m7VkGt0R74cRktsIO+03WjaWjbrDvZFD91hPXWYtOtVmzz/LbmVurzsT30W5O60Yd0QOczuqcQ3uha27ugOucloB6Tk3wW0oPTwKNJR4rNBJQCVhIPhW45vfwgFCm9JvoZ0xuMm2YCDDZqtiEq2bTtFDXnrDaQCMayGSyOfUzIl9Sq5T9ALw+BlpqtQ3B8Z4ENCkxfSdDWC/MPUR+/ja0bZ+2yD78F8/aS+tu8e+c9p87CO0FuD6wsS19ur6h+zROedaNt57Ti9Io51rFez3vB34vr2G+hJAuMsqe8+yLkU77c21o2wbwKlKVFJlCBEwCUn65iSuBh0fJO3aomcON89UUY6K0AlAlQaoACzXLNzPbrbZa0ba157ebMMYwiv05lCLUg7QGFXGOwIxxqWJFAKodKJJrjZ9pu4F7eQ3OvgT0qmr1X7XM/tX85qSpbZ28wA3q379j/fY/M1P280XPWn96aoU/yYcoFcz9H924QyAyEEkvq9cgIrKDTjIAqiaZjkO18GHJjxj/zJusz2wNM/e+adRoJ2hobrQUFenjTzIIuxA0voubXFLB2prGYof+BXS+veR/xM1kSNJR4oxmpTNopWKUSlMcJmwFbTqB5eeaLuYpX9+fV/70evT7Mq/ftAuufd028RITyfhyQgXeBTUpiX4VrC40PxR658QV9/hozJlM/XEBXDe4Jc55KKUbgl6mDieueAMO++Od9kbmzl/Co71YGR3+6VP2IwRz3DABdY1aaMVA156dE09kixTuWryX+3xq+62fzl5Cz6yLLvuvg9yn5dXQg1rGqCdSRz/6CWUcbKCdv3F72bKW0BV3fThWs9ag4qLatx6qzNcHHlQiVGM3ooxxm94xy+trIv8OSy/1Toizcoy97V042D72lNX259mnWNPLTzJNmzrYy+9cak9uoJZfHgfdRW7gRVAszcGO+AQUgCf/0ZAAqfOFJ3eb40lKLeZVQw+aUs3t2zdGLvgTx+wp9fqTVoRsO665Am7HNDIYan1WNlMROvjZ1WR/5fPvsl+d+4bVsG0znPM272HaaPt1RXR+Q9qTK0A4ToFGs0TamFgaeE2++GlP7bPnfxHn9yOY5cphRYJxllZEfnsAsDC995qfHjvH/HuT8tVko1d7dyxj9gHRu+yQSW3Mqk7hS6sySZVrrZT+m60ieW8mRMb6nk84Le+ebw9smiadem20ioKeZsEMsTccUDID6W5Nf1WCOAKWiv9noAoQapVpaK7bSWXw/iKXda3bIWt4UjEGMuRW9AaWawY2LZtgF1513V222W/tXMGNloxfqg/nP+ajei+0X7x3KW8qKg3ecasa1eWzJx5u33sRLps5P38qiy75q9X27otQ3DUMtxUY/FCQ8kRKDQX2IKxfsLA1+x3F95Pl5+w0b89HztLPi3AzER3BfU+echcW7K1wmavmODdaJQ65KWKHdlwxEEl7UDTs3U1HAdE93PqwBY7dcBzMIv7jLZ06u/Dy/JtDt7t5TvKrG9Jtf2WpSznD+IdxixL4ThNjrdmAytxs9yAp0sjTTMZu4cbtRLAJVYLYC16hlH++LJsO6k370QGhTqBTmKRe2Ewq2YGdN3Ai4lO8BUBSiejOQtA7Kjuae//84ft9nf9yk7vr1eIJO3fT15r5w+8wX706li0W5Z9cdJrNrmfDkljhcOWmF17zzXYaIMZzdWQTzrLIzgIeFqxkOBQuCl0qXe+43Emrc3e+ecptmYjUzrYX3l0xVdNvMe+OWMeI8eYXXjXdHrD0Bl2HkCJV+k11O/DHnzIjDZ4YekU++zfV9m3py/kkGGmLDj17a9LK+zBJcPtuaUn26QhL9qT73kqmnZBa81aFbebnznOFm3uadsbSnBsNtiAss0Id6ldNpjX4cL44MVG+QCYiPECTw4g2oJL4Zk1fQDVitSTyJfF4XxskIjb0B4b7DnArl7J1Q12j4ClXddVNeVong/YvVfdbBMqwT0j0om9EnbH5W+49tP0TLOWeoL5jzx+rq3ZMISz33YCXFoK4Gkt0LPWWiwKZf36aFZ13nnRY9aze9xueqXEHpx7hjc4bYL4yun/Z1+Zvo6yYnb53SfZM3POAfCst2qja5XhkQ9HHFRuoMAaye7GF95l9y1YY7mM+mob82zTzgqL40RMMIk6Z9VYe/8D21njtNDuWjTanl4y2Xbs5NjHFqxm9VkI7EWEc+/sKvsqfqBTB822T5442yZyVKHedeSGF19yYvKSL/vkk+Pt8iELWIOO5kI7ya0gLabuUy/8PqEHjlPm4aK5NhIKDKAhwfondWFbqvrZZXe/1x569202umfMV5rG5PhWPiBRnv8X1sTs1WWTWRfPfBEhyWjA39zlPzwi9PACchb3de260X5z/v2+rGbZxqT96Hm6PZa/JKnTJ065y750EnOP5H/9Pwbbo3PP5QjJdEBFtHkhneDPkQeV4CQ1jj2hsH7rIP+NAYEtwXpwNgvobPBqfD1/ZA7sjtfPZ7qEZcCSCY5FTSZHHZcUA05GlhM3FOqVuGbv/9sVrFJYb+8ePseGdav1eMu359lPX53OJPEa7tNvgkcUigd1kw4uFMfQ0h2cXlfLWZy8OFyjQI8FrepOAbAck5u2DLVL//weViPcwTQM795DOykv9zAQVQuMe5Su4/jtgdQJgrLZLkZecoZq3bk2QWi9VRb1/N5Zt9k4tJ2ODPjD/J62cs1YDPp6e/eEe+0H05c5fXfML7QfP3ulLzHewz/mMTrHn04AqqjFRiihJcPI3QGHo/w0QpALlicSBMtYZE3IGSrNwU2pB6TI7C0g+9HZd7Bhod62bpplP359iN34xlRcAUlWITRxMG2uXXrcLPvKBM4gVXqAFByoXi6/ldXJvesB1U7eV8gMM0LnFgE6vCylY/MEZa3eOMLOv+ND9pNz/mjvHK05H/6j+ZTvSX1b7KErf2u3zhtqczb2s8Us2tvG1quGWvKku2vJr7aBPZbZp0++zz5wApqHtBtxk/z61YvQai32gal32g1nzKf8mM1eH7N/efQaN9YTdPXuME1pTyetE/3pBKASNwSs6DtonTY8EvNcNfHtjOSnwOZplJxUaA9pkP8460a7amSdNeKB747h/t9nLUeAy1hjDt4AVjl+KA0CWlBSertEuscdBeXzh6sYtN00rz8HunIMNMJtS5MKjegJwNpc1d+uu/cT9sDyR+2/T55lfboRR8qNgccYlrb8qN8STmdcZPO3ZbEHMds2ckKzDpYtzm1khFtjQ1i/pzlGLXkugrZrGQn361JrHxuzDSJjtpHe84MPv8Oqd7CkGSBHo8dQecrpZKGTgOqtuAIDnYdpjNQlslU36Y5Crr945m/ZxbIpWn0pBQdomjjhWHaUr60CmM3YJdjqPrCUDaU4rS6H1AhQz++YcwpaqtynV8ihHYGixwt341s2Vh2+pT++dLk9tmSivWv0TOy5RTaA9VyYVoCaHBgcHF+ZsOPd8IIIBWXB5S52/migqzeAFZHgv2esceDLDtwC/R995BSbu3y8a8Zmb0ytlfdsOtufowRUe2EbgIrj8ynCaP3J+TfbtWN4EwItXiwPGkivOhNwWvxYbckq0gjcagso0sjI1rRPGbZ/dxyea4I/SVpyj5ASrNLIeEejaQPElu197caZV9lvXq6xSf1n2yVDZtuJnDDcu7iJg/VZ35XL2yCENHy7Hrin0a4HEUBI1iZ4B0/cnltbZD94/gJbwiZWrVZg3w0PiZMCtEfuhH+OUlCpicNbh49WGiRs5Y4uVluHK0E1ooW7HkkJSZpot66JBNeqnTwn4gtlqaCpGO0wVogOdvXcUk/TvwIYFI8pFnXD2F8Uz5KdfHth8cn24vwzOc+hjp0yK613FxYYsjqhJ5slehTvYg6zkYlqJpChX8VXo+221uTb8u3l9vrGYbZ2wwi6X/JjQKLaHg2AEneOUlCJweKzhKFFbtmsXNA2LO5xXyM4l1IKVPx6y+Bdobo/Eudge2WTtxvDnjIFnr3mQqFeJlpRWiSlTZJscJBHXk7K9XjjN2zGoy6t5oMLgOejQZxarnmg26dgCnwXdDKbDRJyG6i700chFS/60Xn/HqWgioQoWyqfbuGX7Ny9Sl2fjG/x/gDAFEQT2VbynAsUuut/yCv8DjE7+k6Bzr/4k/qpjlg7ewSGOFMt2kUT0Rd10a4FAVz0C9oBkTEi9CllgOQrFFIAjUpNZdwRCZ3o3lEIqt1CTiKwT518p13FcLyJobg0lWscgHGgwJJxLmN6Gy+E/NGrA23FtoF+DFGrljhgoaUA4F+4IIQ0ytBY0he7d6B13H1CQ/Hgz0mTSn/AxR/BBGo4R1mgHavl01VMGvqifWvaKmvB6XgogBIDpBAkwAbWod/15sm8D4azE3T+QaQ3+AsYUp/06z3uKVprXF23D+lASRXqyEldh1t+r33ao+P3UQgqlxqe6Ub7walP+MsXJENpmjbugQPkvysGBnBFjM56d9lMj4USJ093V2g/ob9KLvqtax3xo9Niwsl9OmlPyGxzEouTqj9+cYAUHb3Rj05QIcDy0vX2+KpKW8ULIHVss4zzA+3y0sWm9FqHrhdkXzGSPYBM1kojFvJdxjb4CWjFAgzrfLZWVXZfbldM+JuN6TcbDdnMe/h2cFLepghQdF9SNlrGksNIMBs3g5b35PDRSs7w0W+lzeWTwwhPnzw++q01WW1P9Tu6gHmU2VRiLp0PwtrCHOGfF060z4xb7ffcJpI0DzIIkMwocqxj0j49psqGdf2hzdncg4nlrTatZ4OVdovbl59YaJM4N+qKwewSxrd07/w38Y7/w8aU77DBXZrt4nvOtzkrx2uRgiXqWEDok91YURqlShVqRKnApeYFtT5dqz1VJ40Q9dTjyouvNVQY9jqNT557N+qVR8QC5UI4hApHGbwtf48yUMEDjHBm3TgQY7v95uz7rbSAURJAkKY5lBC6TslMZZw3uIkt8etlWTPdwiiOl0h+9/Tl/ltvkE/gBb9EE9IxPooDKH955mO2ePtMlj5n24baQnxO7I4BXDWsZK1lxUEDB5X5i7NxWRTieyrBE1/KpwDbLYf3BWr9V1Vdvm1mUnx5VaUt2DSUxWLM4WhqhoakKrrtpz+HWF+yetvC0QUqmKnuxFg5cNH4+218n4RP3sqDcChdn7ir9OnA0qSwFtlJdhK2pnoaAZL0Svgt771AqM0WWl0+oXeLTeD9xh5496AbelJbzAFq57FWpiqIXm3107ou98oqU++/+SauFhluYG56ZU02Zzx0tZtnzbD5a0e6nZcEgO4sVUau3cjDQebNgZv8PsLh6AIV3YcWusXx5Vw4ZJm/Za0FwWtzaQDEofAzADPqCskpJR/lraD5OYUAQE0AK4SydeJLhBsBFCcC6BEABTq9GtlfjywApcClt7TpUA//SXyVouklpenF/sVeXVtsap+t9qET/mKPrii0rz97ni3hTAVNC4EwPqxbZ8WGNow0yxXRScB1VIHKz3ZiKqMfpwyf2IP3LiMQyVXbnCLxSsSZD+lgC7mHe/odrtuADMICGIUW9ZAeUhfCloJrPV20ViACsL/vEq2lvAuJfCld7YUD/2JfnDnPnlgyDs9/s22v78qrfVl6SndprDtzm20P73trxirlsISjClRaUamdKr0YaQ3RmQRM/oplh59t+5ZNAFn4Vmy5NINGC2DT8/TrkKvuqTuNKhZ1sQm0YA4I/CnnmG6avJDMzNZy7NGsrSX22LLBdhebW+O4OtQ9KjhnjpDmOqpAJWbJL1SYV08r5fAOtEGx3EMIIV2AitcZQwBR+N4b3R3VRRpN8Vs4ZLZC6+8JFV0SNq7vDnYhvW6Xj1hg//roO1mNOsQ1lhy3MSaq24wcD1PzC1q4M8pgD5p0lE4Ce+rpRSfbtNuv4oQ6mIuxi8I6KkIAUYM0rLrslKbSfX32FsJzxc/CllLXqI8vBGQg0IgWu+K4Onvl2lvtA9PuwofHenY5a7UZlcl2t78OE6BUh6NLU6GlZEskWa8+gGUk5YUIh2kVeH1UBPnStPl1Fyum52yN2ajuHDlEs3YfW8ro76gi6ZrLr0kgh++bW9mKBk/G9AZYjEwrML5uPG+erZ48x37yxnB7YdVQW8YcZpW2v+HGSPWnHRWR0XtHlaZSY8MKAUg5dhxnnBdqJ4wYvPdGnlFmHWpmwo1OrCkrjXEuezebtZlGIrcCYV+aqn25ykebK4pZ7PeDl0+0P84tslx4oXOumpgH7Vcatx9fuMSee/9DNm0AL3rSNJOMsMMUji5QCVCSAa1zQNftfhy1d32RXA4Tyw6+GGkZJ58u66z+W+3h5X2sFp+UtI601YEEnfvQH7/oe0bNs48+8GHOm8i1HDUy8nl0eY5d/0h/e9c9U+2ZJZN8BuIAsz8QUvaIe9SBSuuTEqw7Ki+gDzmcnNqDdQd+Q9pIBrccq0PLYxz40c/qcItI60j7HFAgvpyzZ/ZpsCE9VtnnHno386DMHrFr+5yhTTZ7S0974NWLOfNKryKRJ+zwifqosqnUzn2ag2mL0jz2BAIqaa50m+OABHOYI7fSibEtzdTEkF+gOtC2EewquUvz6AJP5i0Tv3v8E3blfduYOnqd3TfF9tyyib4J198S4K6Fw1fZowpUYr4mXvO0AiDV8DRokgZoFdjh490hl6TZgbqUg/NAgKX6SrNxRi5vhtC5D1VsjKi111aMt1kLTnWl1MKeRW0vk6kQBefeIdO8PxkcVaBSD6FGF7VtoQmm7k8tO1EcN8ihW6DYVMsZEDLUJe8DCKEByS0qyHQtaLQWVjXksh5ex0HSxBjAHLlpm6MKVBHvE1bHaKaWFxOJo67Z6QNdWDBYDO/MmkvWjVapVnNAiEZkhanR3wFgyqN6fdWiYEo+GinJHGAjc4IRjwRUPpofPALNTkA/CgLMcW5p2TArkXjzwfaGXF/qHbo/VSK04PDd2SomIIjeGDPTOoVYZ8HrrHUdC3kwQZiSbZbHgbXayhVtJ9NdAUo5+h9dHNbQiUElFPHRF0HLdOVN1mrMrMZi3pzAm9sRhleAOEFDSWqR8FIJo+Sd4q9oFAj0YtSZ63o6qPLQVD6neYAUesNRFcFNM1o7vIy8lWEHmF8mo3dSUMGtyHjylY9677COJTTONtASjzzeWLWMDZc6F0q2iRyIr3Me52ZMCtDlguuM2srBDolx/Ap6KWUfDvCPae6SewLb/ob0RiMBrtzByTEcuaTTZBxl+5vR2xSvE4FKQFIteFXc+gAAKh9JREFUZWswqw+DtM5bbwHVHFYPjjycPPxp+7dT77CHP/I9JJPEF8PaKroSLS96dm25ba5lbp9r4VGM31sIz9KFE+7tLU1H90OakI/2DIZrxQ/PQ1oBR/ZUM/bUuu0VNoYzsLSaWA7LA/FTBY2nLf272Jr22IrRODgbAKbEKe4d2XCEDHW4mNJEMibFBoeAG5b84IhDXvNgLfwe1e91nHmv21XDV9qJfYmlxshpLv0W7gBUxTaxstrXlazdVWIrdu7gje7sCiaazBQ5GjsKQYv5t+SAVMO99vEDMFppJILyVjKF1ucU5uWpIsFGShtA6JY+eg/NOg7dsKyE9e0S+drcpibu/oRQnopRA5q9Pste5UWWCc7Lal3HfoSBdYRAFTEw2v2LPeAz6XRxcFe+lcruq2x6/3l23qAFnGteY71SR/M0stFTzMzCI/35cUvtPQ+ebpcOesq6oq3G9NhkT67sbxcMXKwe0IME0BFYwn3tntnEHoY+LCUJ95QwCC6kdUBQsAZqMYGnFVFROQL6Rl4AuamOtfM5Sd4tCI3EEa16o4Sm7QU4cJRCI++h4bjGfHlvuad46eWncu34S5XzekELab/38mSr5/BZX8fuFef5EQ5HCFSw0dVJluXiXxnYa76dM3iuTShfy84UQISQu+ZhkPvbp1gbDpgkGzk8xTL8hSzviNnkXivsWy8N58CxRZyuUm2/njXZllcvskGAMEGkNoeZpRjtgCG9tIPO97xrcU9/r14L83ECTbpwmxGeTrbLA7RZ4hTe7x3YbVo//syaUnth/UBbuK2SI7n7WxGvrB3ec42t3d7DPnLiP+wTM7aylp616aweWF0dZ2dOns1c29dW8qaHdTtZscnKgXx/NbzqpFoJWvsOThtRVH+9neKBxXn28JunRwd4ROpu3xkcpqcZB5Uai1ikELX0DpjFLW1PKuQ0lJ9d+Bu75oSdaTyVZEnM2erNCFD5OZi4EFN96bCEjbb6ypRldsGfz+bkuc32kWnbOSTsJfv+y8fbjefO8zyk14K2cTClaGIA7kUsZwXu8qoy7JpNIrcVULKNBCYd+ZONIb2NA9Re2JhvT/MiosdXnGBz1x/nbg0NP7WlKquxxL506Q/tX6dutivvnmKLyfOeuXX20uoyW7+zzJbyfsAGuvRR5Rs4uHa59eQVbt9/+QyraqSbZ010Op1OSAd/Ath16rJ4UAVvvvD0O+i6OVOdrVy7jYjA/Q4yeYtbB5+ybcYZBxXykHYmUPm9OGDkHohxeOo1U++2a8bu9G3rSuI2SRp9+o1s/aNT7zzom/vKupgdDzec/aS9728XYeM8a9eN2263Luhm63g3jbSdTiIOeaaDS1lkcwbVt16eQPe5sI2fSMLLIlEWPcq8dTH73ZuD7LkVI+2VNWM4spNDbWkIflwj7zf2U4WpR+8+szkRebPXYzs+NB2jf/ecAnY7N9pp/Vbaf059wwYwgeytDW2nPYO/ml3NnkEO/2d9mEIAjf9o9yc807doz4H2bzxyHG/DOB5A1UcjR7W+gwgRX8RlSSwzIeOg0oy7DroQB2P64ZBoS6xsKW0rn1K5Bh9LxOsgfKkmpQ6M1IGwHkKNqX+rTcP18b2S9sBl99nn/j6JRWucoVlcZQurcq13Kc7AaLn27uRIRF2Hloj84LkK9uWVtr6j2LfKpMp4mfM1Zau8tHI0ZyoM9J46xkuIjHOl/GgfKJRwJccYe/qGd1/hy1CkWX925lP+XsG+xYCzhPqrwMaoCxch2qaVjwbsxXnwS6pKYI+OGoq41MoDp3j3Hwle/GgmrWh/fEm23cK5oCxKdwdwxEERf+DAiho+OylTpsXuUg/+KuOg0rrxbG81AtVeCJNBjtp/k24hK4mlTDz4FdlAkhZBBnE9y2SraqM9dcpXb77S2VEyjGUP7cIOqtlBV4CBPL5irf3ohUt401WendZ/FRogOnxMeUkgCgFQt88ttl+/fqb9+ry7bDnF63D/pZxa/PKm3vbIshNsCd1bvVwZAj/HXisITM1ha5Ru8EynC+u9f4M5v13GuEoZ3kOR+bAitWEH3n/qpi1aoQvXw2xGmxMr19or2GSxJs5tIJK/5o1kHQXR724H6r8NF8JX/36B1fOyb71POdqu1VGq/bvnDZ965Gbz8gH5OzIQMg4q0eSbJNWaE4LKnkHLV7Qs+J4Fk+0bU5f7BgZ1b4F52Wi6RduS2AycdblpCM9b3P7qwkx8kTQGYQe+qw0Yu1tqelgjJ/6q1erVZpqVX17NYZsxZukRrvJUS9cKUY3EqhHKT18+1TZU9bVr73+f7dAR2Xp1GrYJfxwsvv7IT68D7PL9QG+krlTy7paiIXySSdy+xdiEVFVPZPAraDeM9iMGLRPd5S+RxJYBpPnp6tG2re4lK6OrdtJJE3VHrbH9AtK9gapb/t83etmcZVNZnbAjmjSWmvOwm67Ujf36imAE6Ml7b5pyvzJKi/S2gKokXwIScFCrcHAPaEmFAZQlG4fao6vy7PwhvJARYWgXcFKGKDWdv63QHmeDQwIbJZmFleLCTQlYFZBjlDxkLOsgV1K5II23Pyzd3o3MONI6BSh9Cxfy6yxmCe+C1WM474B3LG/v40I28rds+XmI0woaJVA5+oQLFbw7yAWitMW8R1kKVHEFpggYShiFABSng3hxGs1Tazj+mgbz8IoudvXx2JVEjzR8SLX7W9pOmltvqfj5i5f4OimdzeVIayVyd/z9vRKgXDrIoxiZSSyZCMo3Y0FCUehaxJpo7KmI6Ohe278SMmBgEuybL5zuKx8FvAgEkQyHdq23bkzH6Pz0mM4Nl+ZgcZ66I++S9BpYzhdQPuQEa/F3ifmsYNjMIrU44JQwlKdaungvni2jm2sCeNKUArYfiMH98Fq0KJZiKrPUt6fkVgdB3WIdZyd4FJWxD8mIDnoZq+K1tnrzaZxzQW+aNxljW3RGtIre9sF5AzPvWdrNtnO2gmiOgK64ovHggvJ1KSGrrgWR8dpR+Qeae0ZB1axxOKFbIaCS5UfouAAJDCYi2Plrjre73yx0A1SGqGSiFx/1KtBRPAgeO0agUTekj94Po4+uBaSIqWIswJJg0Bzb60qsCR+R7BgJUuCSateI8c2t5ZSrGf126ZXFAQlIGbNpjNekbagtNq3EUVn7Eoq4o0HMoq3ZjFArOdKqzhbw3pq5jDI1Hyi7qSNQqrvUmGcuS4SdTJHqV7t/+a0D/BO4F2c01LWY3oWQEuEB5tQ2uvLNWAgM6Q6BiWbe2Olc7ih7SViMbLIG7KGb5o5vPbxCBIm5ZbwFNBv/i+JFZgM39xnUASp6i1WziqGKpKJHPZSCrtXAF2ztyQ/iukZ4qzyjtB3/lQ0CrHlx+JJt3RlwROBV3L0BS0Vq7dyaXfm2tVanudRaFeC6df4gHL1RvZW2fXpXfqQt5I0VuynefdUxfftxl7Lkk0twuHxFF/wUhPZl70cue0TJKKhSyglvd54VcOq8UO9ehT2KhSFwyrUPjH2Z99b9Y0WOayt8mt7iNdDq1YU3HriqFzLeiokCEPEAlRb7V7GTF4UGk6LCxSwxcC3OSOXpcdPa/R4kvuUN6Ce9ThhesqUf7/Kjh8bzHrRNR8IRwKU1a+T05EyIHDS1uuvHlx5vW5jC1LxgR+lVLWnZKZXroZuLVi31VjzZdyXUm6jh5yXqrLwk0lQdy2vf+bR/mlFQBblXFPNmzRK8h+ychB8ddIG6qxZJa2d7dh2vx3hkRV+ElGIXj7VWamz5amfi7sVn7clv95v8xPQalshsq6fsqBiPJE0lgW1AM0Y6TQ8PJchWQ9vShS1bN9oeWtXFl7GELjBo7fQSvERoELhEQzOo17HWS9aOtUeWl7i26jA9aTQwPb1frXUr3sqgwDMg64OvgwSv1AlQVFKYaz1LkRcBy9S/D+VPRkGl/WsKA7oXWo8yiMzKwamGLdQhhcSVoLXlijPDH+QkE7VWd0eoAZLohPKNGOnyOO9fRaWVZFPt4mXY2xqYXwmcU/lcyzbZokPEvLWrkEMJ0CQ7jyykcW96Y4bVMDoLe/ikqfbQVhQp0JQxWsxi0JHQagxoacYuu+1NTADmCTW0V57t0+p3F1ZnvG/sEz4b4d58r8LB1UNlqNHFeW9dRVkhL14qdGZ4Q/Srg/+TUVCJDE2NdCviZJbSQogGVNzbeyFiPAYzI7uF60bZou0Y4PBZGBJAplRug8EM0feXeeIIQqrHAVrTEI3IlFQM1J+dOFPrAVyUIXEPNZCFACXb6I0lU+w7r/Tzdwt6mfxxmy4NXC5ENM6Akgbe+MDIFh+HmwD5u+yp+TPssVX5rSPBoLEEJrVV/Vb49Ngl1p23R8QYOUbAUj30MBVBkfYjSCZKKRn17JoPPZwYk6J5P5LvM8re5b3PZHt/GEYPw3oXA7AGt2NEfMcF8QRO02lh8ObZk6sY3SB8MVHfI7olrKJ0I/witVT+WzIu8jLpzfGNis9/sdrL5s+qnRpB6r7yykRwKTgwtEXq58++1254tRvzilH+crj6AIHyAjiaMBpHVCRsMMt74swbxqmoaNTLyb/01EV49/G4M0LUPeeN+MNHddAm1IHdY/a1GX9NcULPQKnzRmV6KqXcZ5CHP8RO4CAcUomzmNCk4XcGgvM7A/m0ZiEHpsK4AWVWSFckO0Y12Du5kW2SwLZ6YDEbIHEniCgJIY+uYHr/OdhX6iZSGSnzvQWiqLXpRY15nKGp1q1kXjY0bKjjTZ8SgCJlJKiuKoQyKEgrEb740Efsv57t7ct2VK6ApfICMFR0Hjbxu0bM8snpBL46QSiR02hLOSXv/Q9P9jMRBKxmmCc+eKAMlaYTXj40bqtdOfnP/EDrwpusyB3P0xQ9UYq9/k24j0Kmh9Y7Nti4QbywmSC3RiZCxkEVRoBTB5exxiiHRqT3VkVA6ZhgcUufhM1ZP8zWsCpS3mMHI6Opc1lF4G86l+pyBktIykl/UgxPZewT1QipvGSLDSmpkxvJs049Rlh0tepunXdt04Y4B/6tzPhImzK6aMRG/Pbj19nHHx3mQkpQN9VF4BCw5DtrRht98sQtdum4+6gbtp8WKRJk9P9t1oV29p3nsHwG+5L1ZJqvDGnVYOW6yKFet549z95/0h/Z4sULBBiYRBpLuXjldLHXIDtXvEsykCrMz7FpgxgREzKEqb30Sl7Ewf+R7Pt3z7d+FVQWwuW13XdVBTte9cr822Orerh8XMtAwvS+O61L2Tofequr8OkaqZ9Wlb+bTndn0qUMK1uBkY+WpFVLcXrLIcmY8lo2XGq5sajZN0W7c92fKzInOwFWqjGB/+13z77PPv3EUNwMu4sK4FDJ0mB/unCWff2sm6wEm0qrX/0VthjwLy6cYefc/gF7eCluB4AVKbtIa3lPAIOV16/Oe9N+c8X/2ugBr/rGkAhY0PIWIao9XSCy6Y2MhvQswlSBt2rcGQjO7wzk02EWM0YBkGZWC4gJHcZIu0l94rTaJ1YNbvVt6WDWAUzjvX/cg/6Cbs3I5zEz74ASsNrlGmkqvVFrpx+to1auCnr3h7oYzFtJp/AOPl++3C5tGiUHcSlhUJiDPQJWjGmkm59/j/38FRyjLHWRtpLQBAa3ECCqkYHt109fZ584+W4UtRofgETTJXnX4Potg+yav3zE7llY6F1pevogfO0meueoWvvDxff6q9+040gN762CJvp9VQT21IyR5anomQGUMntbQBUAf+n4/r7506spDOw1yOAkFi399fWDeJEjhKXqKHX/H1NX2GfPvtE+edJddvvlv2SZhjztyqxtpnJG6lD79axc0GoErRJQKw+VVOxRPdZ5ObJjMhtEMJ+UFm2hPtLPP3j+YlvPokFpGDlfBQh9vKvht2ykiwets25dcWzSqMQHnbFgzHHuxP3xmUfebYtwrGp6R47KAEx9i0eNTIGqS/Ut79KU+xNIK5loZchFJ3Jimq4Dw/3Xof3ZTyoOrpAT+5XY0D5lEIxdBbP3XhjcUZcEQ7fv6m5zNmiKht8KNNFiePztGcvtx6xF786cYDM2RNQiU3GimFErZxSm+cTHVuLSYBSmFu6ghpGoCZbLaFmM7rRNm8oiA1/k62Ux0sSA3rKz3O5f1p2VFOrydmcvSIsClJhVN8StiRd1S9MCG38gYOmN8pt5R+BPXh0VpSdR6EL1zX+WPBvavcxW8sJJwyZzF8fuYva4kgxUSjyebf17Fts0vcA5w2Hvcs5AQWpNl03thwLKR2NFjsKOC6Saaj2M2nayvunZ9d0ZDUVaRnkIGDrkS+/n+MHLkxyAzny3jbgftA5x/UzxXT04pS7FLGTkZSIB5TNn8wDKcu9XBmq4tyxEk5OJdsmyHQ15ACyKG4GBbo4oGpDUoqm+9cLJvK8Z4DHRHUFNcaNhv3xZCzdX+ipWabdgX+lbjlKdyfDLV0+lsFQB8GBvQTGEa8kiGc+1y08a6PjfW/yDvZ+i5GCT7z2dmKdw0dhKThDW+1U0uojUbseptJ6c5bGsaHxpfW8fOSmLkI/U/4vr4va3OWfAb7U1QqqrkQAiYMlmoQyEs5IdzEl6SQaQXra4t4Pfa6u0hkqsjehTNpkPFKr/AKqEaZhJPTf7IjzJW41EvNBzLYP51GNj7LmFZ7Bvbxeg1yiQBwqqW+orD3eD5jFbFV2KdC2Z+dWcSlu46kRLotUSirSPeim9ywACCuDRO1JdX+CxystEeNtAJeYpHFdZbKcc3wMthMHJLRW4Z6GKK1uDLxi2CkC08HJqrUV3RnJfE6ojylrs86febuWsCdeZ4Xo1WgSslJRI7Fim21lfU8Zy45QNonyJurYGu8TXPoX43H9bAvlDiOgbUrnEpg/kjQxoJPXoEiAmoxvv18/sb3945VLQVQ/lqbo4KDwiWg6NAtim9qG+4EV1k+njPIGZK6sS9r1/XE5mgM7Nh73XS7ylBJdBIrvQpjGIGolsFIKs/EcG/qicty1ohJHLuufLJg7gXSzSLhFwxJQ9C1Y3h6bBCF/FBPNi3naejZpp1XBcdKFL/PaMFTb7g7fY/5t2p+8ZjOOJjlp1xFB1o1oOXFVfxHQNgqAgCUMKYHM9LxziwnvNt63WFKbyqKEcuv8x9Un3LVG8BzmttfXrxje62o+euRqBYpi3alxFUUw1BmDGS5J6dF1rHzxhje/U8Q0fqh/5ax/iF/4+zWqqK2iwwNTL9CL2+CMPuhqlgKVo2i5/2eQBbMCARmfOHkkO6caesj2k7Nom9spQi/NO6GHD+xdYM7ZVFv25CvXW1ia6tAygA1Qbtwy017cUan2eg0qjJnV/OohDvqeugOuGCxbY+ybdTxqhJhKEslMeWlO1g7dX1aWOw/aehCi7mhkwKO7bwMioKlRWdRAgWNpy6tDn7aIh7MnTLAHFyizUbpiHl+bY1x/6kGvNaF09DwORnlHEC/nupg96w/rhm5SRr85NJxBn807CPy8osEfenOGzB44UIcYBGVGS/td9ULBJvJcMhvTMsQvH9IQNokvpMhveVlCJVK0G7crSisun9MfhrDVW0lcdBTGWD1om0VhkDyzFI00D1NumVPGleJhfXBuPwMXvRvY/fG7cfGbZ2zoz3T5AQNUsGa5XP6OgAiVvXUp4bwMjU7mTN/UDWDn5NfbNU551vEvb6iPNu4KXXn74oaushs0WJltJdpDTE7hCRAGfpiet/blxr7cx0uWa2Iar7rvPn2WNWhaNo7VtepK2D+QvQTvv8U1dMrmfaSGlTyG1j5uB3287qHLo/iToj84YZP3LWV3IchgJueOC1QWyUoG3Ovxlzjn2+7mFbJmLmM1Uoj24vC9e6hFWoy4ELVbG1vjsNi0cjhBf3V+1NFVTVBBi8uBaai+QTkU5hC/KkkbVwjuEfeXYh7CFGKBo1aEe8dHc76ceP8U2bxlKBTCspYq5HwEyFB1pumw87JOZ95xQQXq0k/gl7S7XxO/ndre5LGzMwhEcGefKJNQy5LP723mtx/C+T1mefez0wS4T987vjpaxq45lm7Hsd2dUyHvJPnruCBjJcF7coZJ7Fs5NuC8zKcGUzcf+9nG78t6T7KOPjLV5G8y+cdoqK6J1v++BqbaNBrqF1Z1NjLD8rZ+tRckpyJQPfp8GZaQs9SzFd7/ehwBaszmgCxWiroS6sfune8Ui+8LkeW6QqzwesSQmZj98rdwen3emG+bu4PQGoRgiTiHKR9pOjtAPcyaDhq/ScnKHSNNtYAv+L186nzpTR0+SqlhrHp5R658AKJWiZUnXnXucL01ShEwb6KHQPeUanmTwOxD/oekDbHhfRhy0GCkgYastAdwUowGWtl81Y5c8NPsc+8PMa+yqB66wtXimv3v2cl5Bu9G+9tQou3dpL1hJDpJaK1AiI1fLdKNlLqmKEEXHGEan1gUhZqqSkWA1L5mNr+0L0+63ET2xiLD/FDRN8ypd93dmvtMbgBvmrUUHWqJ6R0cC5FkfDi05b8COwA4ftYlnt82vtDXrR9I1ars7dW+vqVvzjXjr2k1F4OwcUplvHzt1kMcIMkmLnrHLtjLNWLYdZ5THfML17+IliPzTTLkK3xewnGFsHk122WjL14y1999/htXw2tlvnr7cuuTX23effTeMRRguF/9DjgCSe9pW71jjtj8hWnE2XZN+qy/KWBAYBGS+aASTMM4/ydKUJlYi6J4Kb6QL/OKTp9suNjloR7MaTevDVjoUWb46xqdMil879ikr74rtCDD1RPF34Gb56UsXsKgRnuxhi7Vm5BdR2ZEtpSmYJMuGv/bOsVagbd5vczisoJKQzxlZYedP7B2NBGllmh8TsNoGMT26I5uhWUtDsB9mLjyVJSXjafoxO46zw2twG7jPwFtr2xw8fSoPf8J1ca5m4ikt/X67ZAf2U4AiM5UPjUW8hOkXZzzpc3GhwejIn2+/1NueWzwDjYUdpcJd4qRpDbpWQ9MgpdAqKxfYu49b7zaYRo3im2ypX8xiAyobYBO+pidK05pFuwuZGOrudFyARnxnja2wi07QiK9dxLfh52EGFWuwMdyvv3y0leW3WFM8xx2cIqJjQiR9cUHAi9wNd71yid38YqktYBdylubLEIRHaUWKNITSpYZ+EkiK/93yPJdISlEi4h1MIENJB0AJpFl8q/1//6w/2Gh2gGmFpoL8UU8ty7FfzHwPDaHBd0V7I0jVySPpWsDkS7uc43RpFx73vI2oxH3QqqVYCs1o93ezp7uX3kewXl/Vc88gXmpXjI5GaGG5cCmN6d8vG805W9Ggac8Umb3TsSwzW0Zrbr4pgNYjT+5nLhnFyI1KCizE2FNbhWQ8FSpgfEJahhRfeepqu/2N05GPznYitLZ8xSMvxeWMAx3mkZK9Dw564N/ReioXopfqqUNB+/mtMkQTABA9GijgpPzEjNvtg2OqTMuFRY7qurEa98EjV9guNre2vh/GEU4EpzzkpYM8Ii3Vo3yJfXXqYl4Wqfwj31Y2Gx5+N6fcNm4eDDi1EVbp9ek4iEsuWPEXBnz8guPsxH4cgwTvM7kaoePSU2Xv7eHbcV+V0jLZT5422KaP7u4tSffEhL0jHAYiKdkRCUCxg21WW3bQDbifJzB497dspuLCaitg3YzfVXLyR3GwE3frbgz63QMB1m4QOCawffJYVPdlFtp999Rl/pJtaRsBWd3Vz14fiFHNiBeaIyCoLFGS+oZO744FErRuUckm+8W5d1pvLRmHRwKnprZaWDd1z6IxTPXg29LuImXheei7bQh8VJQWeoJpI7vb5xjxieeHA1CiZu9ybEtrRn9p02Quqvhn1463Ct5q3kznAWRcW+2dIEkKMjTiQUNpvsuv22gpMY4RHnZJT96zXJ4fuS9c0SFpzepP6bUQQzjP/UmRXDzT/aufhE9mWuSnkd7YQS/aI+/9qf3nyWtYeYmRTYYCgSAjbXHfkgloG+IHLEVo4EmqTGk6zyvLTh4+056+5pd28TC6Sbo9aSkUix/D+MamLA4WGeBb2XwGwdMrj7ZBvFO5etICNT04TeYXHxjv3Z54frjC3mX4NlMgtaz9gf/zoUmcOMfkMJNZYRWDiNqTMDFF0tFfQTAwKUhMrT4SeBHO009NfMLK2TrvGymIKgGxXN4+P+kVK+H88iRb4+MCp9SKwJLK2wvY2x/ylyYqoAv6+LS77cVreEljH/xFKRtKtpz8ScpNtnR9fT5C1opOhUCvronERxs6ClnF8K1zf2VPXPW4nVBBdwegdOSR8hJpcrVpD+MuaSlAqHvtaQ38EqDEQ52NUJCTaz94/0QbUs6r2aJESnhYwp6yOyzFwh8qrz7+ghMq7WPnD/aWJR9SAJYYtGeAwy4b/Um/Vky1blJxst1ZY56wT0zdZg0IWy1eZelbc3CTOXnvpstutIpuqzg5TXsThQJJSnnuK4g2tCBpxgx4zX565kLm4SJjWjTrI+EpJwELvFghZ3vKmIv8UnoSAtf6j7a7fMxj9sWTt7jbQWvGNFpTzJCXqtQjv8kKc2vaGem78xOv9JEwlbqZNTHXnTfILh/fy3ms+h/OcMRApUq6fQWwvvqOEfbOk/vQE+T5eQLe2vR8vzkRMVjaS0zdWN3NapnL0RYvMVsCamUrFxeParA3PnyTvWfSXyPpe/LdQtqzWD2LhC0VVFXXleU5OLs1ywKRDoCUNtCeP51mrBdnXzyMeTviR11WyDXKCzSjwzgqu7bMwY814L+dVtEL7XnkpVno43ok2Cu4xDc3qHFQIp+oRsKL+CSe5bKMoYXDSi+aUGn/eeko9+EdLjtKVIWw/3ILKTL8ra5erfMG7KtTRpVxrAcbLJ1pu1vfWxdJJilMJOifdtR1YZlLzLYylSOtIedCEkFf/+IA+/bzve2xRbn218VdObL6uLfO2mMo/0iQ+luI4Y2D2rYyzFe3quCal+unlmfzWo8IcN+cvtL69eRcd83xOYFRHrrUAUkJ7Kny/CreX2i8wCk6cpJLemMOOGON/TOrsmwLa9CLON772zOetcIuG+jOmTtN5SVA+ZQXd8Szhli+TRnWxW66bqLzVHkdiaDaHtEgYah1at3VrR+ebFf89Dl7YyVr1BNMxaNmgloXkbpuG1ISdVnxBwO8O93ary+4z3fh/NsTg+zrU5YBAphPTf847yRbu2ISBq8Ob6VV44zUxtPQ6tvmrV975l/RYwX5P8CJNOyEeXqwfW3SUvdHafwwnze4n3frl21gxTI7b8jL2IoNpq2iu4NQgBaS9mLZ9EmjH7ObL55rr6yO28sbS+za46NpmVxcHz9/sZ997/EP2uTBL7Chdr7VMtIMWUkf6x/TqK4p1TCb44W8HSPfbv3YZOypyJVwuLu9UM8jDioREirfg+Ns/vSZaXbFz19gFh6D1ep8B8meYArkS0jKAKcmrT6X5Sa/uvD3NnFowr7zOMuYEWqB1ADqSkuLZZDH8qrds411hHzpgIKRTrRWqenSQ3r+OZbPOZu/vuD/bOzgpH3j4T68crfW8slfa5x0jNDv5w/BdkvaSo6d/M3qsQCXA9r0hlAW63knBaD0zh29a2f0wFfszgufYqs5x1/PGm3nDlxqReCmHg2lN7Y/u4qT9phUf2npVHt1/lmQyYpRBiA6gER0qtrqCnWkY1O8wEb2K7I7PjmJMyzIRDGkxo5QOOLdX3q9ZbhXcrbVnZ+cYuOGcBoezJKdoJYoQjskVoCSVQyjv3nmLXbRqGZ7blEWB+kPt2tGrfPsE2QwZ1OME/ZKyZNtURK2d0meTBJIXXj0tn9C/gj122ffaueNbLGn5+fY82uHcVw23RHSddAj63sWTIi2WeF4jRWzr6pko6+JCsCVTyqJu6OCF2n/8vz7rEd3zoF/uYcvHryY/XvV7M7OR0u9vCbH5nBGeiKn1uJo0/+vvauNqbIMw5d8mCJHNLECSYwDSMYiLWk0K3FlW/grXausrT+t5R+3ftiqtf44a83lr1bLTceamq1aH2v5x2zZGmAWMwUcJiSRKCgfRzh6jh66rufhgRfCgVse3gM8es4L5/A+H/dzvfdzP/dzf4D6qyTWJ/lMJ6aig2gi2kR5BHPP4jTseeUBRm6RU+gAdx0+irj+Nuo8xbUHnsaM4E6jvkXzZ2HfplKU5geMnCDNu6Zdkze8wzHKJjTiJ7fZUl6Jzas60cscMe9V34/ni48ihzZY4lKp1EjvOl6IHpreGv2WahvXjo/1c45U/5vlu7DpoW6EGK9zR81yvLS8GrkMby27rltY/xs/56GlI49LK4OSEORRugPpxf3nQFusiNx0TqAdO9dV4sHCGGqage+birF9dS2oK8Vc6uwUoGMbPYZkJiwDPIXZjvKlrKP2nNRuOkQTyVArgumGVkF6GssgciIEc3Z9WJkRvnxl4qE9rEsSO0g4co+uvghe3n0UB35nXrxon5EfJHirCFwUdQ2XSqPb+CN5nOQA8wB2Z6Iosw3b1zZR8mUKNLow7T6egx00O5G1pWQoM9GmlrHeVD+BwGVndV4NcgIX0ciUasFbz+OdVSdNzpm6rjR6Eefjqz+e4DJIaJijo+HQt2s0scUAHgvoNLquoIrCeRQ154LUm/2ER5nUqS2UjCMdGdh7bAV+OcWozFoytTSTDnastq/a5Ukuk/PCmuIM7KSeLzOgwCOWZmONKB7f+xJUGrgj0hWmNH/rixP46EADCZxEmzXKFmTxlmtJZaCJ55IgZSZtqCR852efoJBMvQ7/trMvA80dQVZI4XVQCy9kiveNp3CyyHmSaOJs6+9F7h2N7B+dWgm4CyHFcc+k7HSJVbJeA4QB5P+nDdbFPiYroAb7E53TgcKFpxEhB1NMrTY6fCSznX7KYS7kkQOUrrLUNBneSYeN5Xfh/WdKjPPCeEYRz7/xLahEBD58ejdc6+Mfm7H1s2PGdy+V+UHkDCGuJWJrHrmXo+BKiAk8jPkpeypztyIRU8ZRPUZfNK5lz9xq7nEgUUJLoottskWe0xlQsq5+LlEp5E5RfT4IqJGAHQAZvxfQlUFUalIta0mqS31S38mdZE+lNqzk5B4eq3aJ0uIgPTWGLU/di81r+aCoh7p1ZHPmm4l78zWoLNGG2Hr1nxfx6p5aHD/DeOpXGSqIxFT6NBWBSxMtziWdjdGU8xP+ZJ/66064uXEcb2xnoA7tvdxE6qDY9OCG6h+qS7tFU3ghz2XfLUKM8M8vtLsT146lzkZR1my8+1wJyouUq0SAGqKN+cAnb74H1Ug6dYevYuvX9fjkYCPCXJaS+2UKYp9o4cuCa2BHNvJmH//u7bcAa34X0Ghp0B+7io2r87B1Q7HxgvErmBx5EwpUXnugg3W0U99/AvUt1N0wTIxkLT3zJnY7r5oU97S7wfr16u2rUZ8QVVFyPsWPWroogLfXL0NFSZbpvpcGfh1PQoFKRBQ30pOqrXMfU2l9cOg0PvyugcHuCaHYNeMJHaWq2clbusev4PJyJ+3qZJ2g7GByP543qx8vPr4Urz25lIfJVkOu5V1czO8l4UDlCOp9Yps6wtj2bR1+qD2LjjCtmiK9nCCqhQZ3ie4ue50okAkQToRST9QPAcvs6qhjmjFzLrX0UTy2IhuvVxShgBHuVLxjNR/4/C1hQeXo6pUvfm3uROXhv/BNVQu6mFWhn7otK7Tbx9vJXl4O4eq5mVdve/rZHaHY/pD7UOeUTqVpRVkuXihbjIcL/S2Ij0WrhAeVBqjJkbmsnCpU6s+GsLeqFfsOnUJ7j4y9dcZHTkDZK4VHG3Lr0tPvLf8393JAcptCLddy37fck99S16TlekEgFc+W5+PplTkooR25iuRCLYeJsNR5aeh+nhSgcoMRWDgVg5PRw53il7/9gz2Hm5mqI8T0tjyTS6FeiF4FyQIYJ1r6Lt3H/4PLkeq7UZA5ELklTYAQiAQOgeSazE6V1Yg5cZW8IJgTwMayJVi/MhsZMqNg0cMhWVD9SuQyqUDlJmI0GeTkuV58fuRv1DS2o7G1B60XqBCdSW/pazwO4Yv8y+i9xL80uRKK7dXVev2rXc6szkhwEBOUtozmEPZFGU8xDILcyZXmL8SG0pzB2FCu1tH67L5LtOukBJV3EgQMYcR70NrQdgm1Z7pR19qJY81dBFmIh8E81hEXIwfTUmkUFLrRAEwgG60QQmJJfOmfWdIUN57c6E5aDAhEJUvmYVl2Bu5bPB93Z9kgY6pJIBIYdftkK5MeVG7ChA3JXRJlvMtLmOnXz4cuMzxPhOl3+9B4LoSm9ksEGXPxhSLMBHoFfeEoZaEYwhHt92m1QNfxZDoXpM3i1p8Zw+YzLM8ixo3Pu20uCujTWHB7gHmRadXJg940j5u5llmZGcuzZTKCydF6yoDKDXj6evMp4OTLm9/SdAtThgLToJoyUx2/gU6DKn60njItpez/dN+UGez0QONDgX8BXlSi97GzCHoAAAAASUVORK5CYII=;" parent="1" vertex="1">
          <mxGeometry x="680" y="195" width="49.12" height="60" as="geometry" />
        </mxCell>
        <mxCell id="-d85q1kpaTbKizXLM7eA-50" value="" style="shape=image;verticalLabelPosition=bottom;labelBackgroundColor=#ffffff;verticalAlign=top;aspect=fixed;imageAspect=0;image=data:image/png,iVBORw0KGgoAAAANSUhEUgAAAEYAAABGCAYAAABxLuKEAAABRmlDQ1BJQ0MgUHJvZmlsZQAAKJFjYGASSSwoyGFhYGDIzSspCnJ3UoiIjFJgf8rAxsDLwMcgxaCZmFxc4BgQ4ANUwgCjUcG3awyMIPqyLsisZV8XHdZK+MZ0880XhTkPlR9iqkcBXCmpxclA+g8QpyUXFJUwMDCmANnK5SUFIHYHkC1SBHQUkD0HxE6HsDeA2EkQ9hGwmpAgZyD7BpAtkJyRCDSD8QWQrZOEJJ6OxIbaCwI8Lq4+PgqhxiaG5uEEnEs6KEmtKAHRzvkFlUWZ6RklCo7AUEpV8MxL1tNRMDIwMmRgAIU5RPXn8+CwZJRIQojlRjIwmNUDGfsQYsmZDAw7tIHenosQUxNhYBAMY2DYe6kgsSgR7gDGbyzFacZGEDaPFAMD64H//z/9Z2BgT2Bg+Hvu///fM/7//zuNgYH5CwPDfj8AqjBhQrh0WSYAAABWZVhJZk1NACoAAAAIAAGHaQAEAAAAAQAAABoAAAAAAAOShgAHAAAAEgAAAESgAgAEAAAAAQAAAEagAwAEAAAAAQAAAEYAAAAAQVNDSUkAAABTY3JlZW5zaG90uc6UsgAAAdRpVFh0WE1MOmNvbS5hZG9iZS54bXAAAAAAADx4OnhtcG1ldGEgeG1sbnM6eD0iYWRvYmU6bnM6bWV0YS8iIHg6eG1wdGs9IlhNUCBDb3JlIDUuNC4wIj4KICAgPHJkZjpSREYgeG1sbnM6cmRmPSJodHRwOi8vd3d3LnczLm9yZy8xOTk5LzAyLzIyLXJkZi1zeW50YXgtbnMjIj4KICAgICAgPHJkZjpEZXNjcmlwdGlvbiByZGY6YWJvdXQ9IiIKICAgICAgICAgICAgeG1sbnM6ZXhpZj0iaHR0cDovL25zLmFkb2JlLmNvbS9leGlmLzEuMC8iPgogICAgICAgICA8ZXhpZjpQaXhlbFhEaW1lbnNpb24+NzA8L2V4aWY6UGl4ZWxYRGltZW5zaW9uPgogICAgICAgICA8ZXhpZjpVc2VyQ29tbWVudD5TY3JlZW5zaG90PC9leGlmOlVzZXJDb21tZW50PgogICAgICAgICA8ZXhpZjpQaXhlbFlEaW1lbnNpb24+NzA8L2V4aWY6UGl4ZWxZRGltZW5zaW9uPgogICAgICA8L3JkZjpEZXNjcmlwdGlvbj4KICAgPC9yZGY6UkRGPgo8L3g6eG1wbWV0YT4KUy/9yAAAChBJREFUeAHtW31sVUUWP68g0IqAtS1K2/daoZ8soQhLXXaXVVniRjZKCLqLIoqCHySuicEs0YACfrHZYNxssriiAuEjAmHFhA+tuiZrSFASMUhpK7v9oLhioQWB1lJL9/7uduadO+/e++7nK3+8k7zOuXPvnJn7u+ecOTNzGunTiNKUgEBGQk26QkcgDYyFIqSBSQNjgYBFdVpj0sBYIGBRPdiifsCrOy9coPf37aP6Y8eo/cwZ/Zd93XVUUlZGN02eTJOrq0MdY+RKjGP+sWMHffzBB9TV1WX58uNKS2ne/fdTrLjY8hk/N64oYJobG+mt11+nk62tjt4pMzOTlj7zTCjgXDHAQEv27N5tCsjYkhIqjEapob6evlFAAzgrXnyRcvPyTNt6rRxwYOy0ZMLEiXTvAw8YXhrPv6lpFQcIZrVsxQqvGJi2GzBg4Fx37dxJn3z4YcLAhmla8OCiRTTFwsG2ffcdrXz2WfqB+aC58+bRb2bNSpDltWJAgKk98hVtWP+GPtOoA4eWLH78ccoaPly9Zbjev2cP7dy2TdYFbVIpBcaPlkgEGPPyypX076+/ljVBmlTKgAlCSyQC/UyYJhU6MEFriQpOWCYVKjB2WiJeML+ggAq0qbi8spKisZinmCQMkwoFGDstEYDYlfAVZRUVFNUAi2qRbbIYxcykHnviCctZza5vcS9wYA4dPEjbt241nXFEpyivzc6mjvZ2XmXJY42UX1ioaxQ0q2L8+IRnzUxqzauvJp3dEgT1VwQGDLTkjXXr6Mjhw6Z9jZt2Kx0/8E957+W1a3VNgLm1tDRTfW0ttZ444RgsMxNcsWyZIfCbUFVFTy5dKvt0wwQCDLRk4/r1lou+UflR6vnV72h0y2H6z6c1+visplYAXHv0KLU0a2BpK2usm3ggZ/dy0CysxDl5NSlfwCTTEjHA0pl30cncUho6KEJdu/9OXd+f1W85HTR8yLGvAFYTnWhpMcQuog+rEoGfF5PyDIydllRPm0YNdXXSLCrnPUbNkWv0sRcM6aX6DWt13uug0ViY4AlNs3hfumDljxeTcg2MnZbAoS5c/AhVTvgJ8Sl07MKn6dvu+Gi5SXkZdFxSnMO4Dn32OW166814JeOcaqdo4mrPFyvb57XFm5mDvWXGDFr50ks6KBDOQ/WzvcZuzhZPoswRo/QxQBa0zy9d7OykA5/+y1IMfCDAc0rGEdu0gp3/WXtx1blBS5764zKav3ChnBoBoKDrx5XRDz9eFpd62d3bR9E5D8k6t4OWDfuZ97UF5Srtgx1vaJC3Cm+6WfJgsBu4ZdMmQ53dhWNg/qpNr+pW4x133mnQEtFRc2OTYGlUUYnkOdN6aRBhCgdBLqZ6t4SP9cqqVbRDW2WLsUET4dPay39JsYlTDCIPHjig+yZDpcWFI2Dg6Ph2I/ZLlq9eTXPuuUdqCZeP2UPQkJwxgk0oO8uqPZuUmZbc+IuZlHnXI9LRtzUeT+gT2x1OTMoRMDX79xk6WPKHJ23XNJhSBV3MHCnYhPJcdy8Vz/q9rHdiUlZaUvbgU3QqWkUwU9DIqzKosz8skB1oDFzBLm0bNRk5AoZryxht0YdZx4644+34MWL3qP51hT9I5gfstASmyWl4pIdfGvhPPvooqUk5AoY73FLtXMeOuONFxCu+oF2b3om3SJMy8wNOtYT3Meh8fB2GuAo/TslMyhEwXOCZ06f5ZQLPHW92sT2IorFqUn/7y2vyi7rREiEP5YXGOnk5STugu2/BAn3hKiqTmZQjYGA+gjAl2jkv7niHjs4XzZKWiIy5Sa1d8wotmj8/YcZRfYmV4DPH48DgUA57yAg+OdmZlCNgcKYjCH5g/9694jKh5I730ojchPt2FRfHT6fRZeb+S8w4qi8xk8cdL2ZQsZ8D34hAlJOVSTkCZvbcuVwW7X3vPeK+hN9043h5O/DwRz1T79DjkMJJ1YTf2J//msZpSwo+46jt1GvueLE9wWnO3XcnmJTZh3YEDBBXnReOUlXiYDl1vKoMgAOzaq+Yrv++jU2i/7J1lvq82TV3vNgJ5GRmUvjQcPCcHAGDBnBeUEtBmMJ3bd8uLvXSi+M1CAjogjvenJxEczYzqa0bNxp6dwwMkMbpICfVpLw6Xi4zCN7oeItMRaomdeTLLw2TimNgIB1Hpjgp5MRNyo/j5TL98NzxQo5Vmgg+9Izbbzd01dTYJK9dAYNWOD61Mik/jleOyCeTmRFfySNLwo6i0Zjh9um2NnntGhgrk9q8YYMU6tXxSgE+mCHfx1+OhxlORGZdnSUfcw0MWsKk1K/BsxacRrxyFAEy3adOSmnRWJHkzRicTnDKyrpaXnoCBq0XKSYlJWqMm4iXtwuC72iKb1bFiossRSJ63/Puu/I+3ANfHHsGBrHNb2fPloI54zbi5W398EMyItTRGtcCK8eLeGvNCy/IzS30ebOyyPSVtYlEnS8OHTLs7/p5Mb9ts6/qo45+IaqpC9lmKW3YnsX0zcmzxgghZiY1qDWuzuK5VJR2jhda8px2Uqnm+cGEsLjEpMLJNzBmJtVQs5uK+s7zflLCWzleaMnq5csN27MYEEB5Wsv65L5FDNSXKQkhZiZ1dNs6urYgRnkVVTQ45wa6MGwEne7+/7ajaBd0qTpe7FW/s2VzAiDoN1lKm+sDN6uXwSJMTRg0ezY6+WeUNaaI+rRN8vOXB9O5nnhAZva80zrd8W7+k3wcq2q+JStuQEvsEh/Fc4EBA4FqKoboxK7M0o47bqiaSkPzCqj7Gu1QvidCly6716x87ei3of/o16q/ZFrC2wUKDASrqRioww5gl3ZS6DQf5vryCTSy8EZXJpjf1kDwbWbkVEt428CBgfeHo+O04KGHafptt+qrVyzU6o7Vuk7xECYYGZVH5zKGGUwQjh4+zYzcaAlvHzgwEI59GmxJCLLLaoBv8pLiARPMKamg86e+MQR1ok8vWiLaogwFGAhWTcpNVoObFA/0pRJ2G7GxpsYm6nN216EBY2ZSblMxxMCxrhEm+HFNjWWGFU9DEW29lr4DPKuOsU7BoT8nJ0ew/HnB48sjCCuvqCSrc001DUW09VqGpjFiQH5MSsiAxlj9Q0aQWiL6Qxk6MGYmhXwaszCcD0zwdilt0BIs/vz4EtGPWoYODDpUZylkVz6v/fOV3QtBS6zSY8PSEg5OSoDBSz6nLdZ4gIeZY/GSJXwskh8oLZED0JiUAIMOMQXjPJoTpvB7tWlVHKEiptmqpYOZ5filQkv42FIGDDpVTUoMBKaFJYNIFxP1ogzTl4g+1DKlwKDzzW+/TcgycEJYYz386KOWZ0NOZHh9JuXAYKDwIe9s2WLwOfwFEM7fNnOmnuPH61PJDwgw4gUBUJ32zxXiBDMnN5fKyitoytSf2s5Yon2Y5YACE+aL+ZUd2pLA78AGun0aGIsvkAbGApj/AWEVQR6JUq4CAAAAAElFTkSuQmCC;" parent="1" vertex="1">
          <mxGeometry x="681" y="50" width="50" height="50" as="geometry" />
        </mxCell>
        <mxCell id="5l3hyqPQ7i1pHzU4ztAn-2" value="" style="shape=image;verticalLabelPosition=bottom;labelBackgroundColor=default;verticalAlign=top;aspect=fixed;imageAspect=0;image=data:image/png,iVBORw0KGgoAAAANSUhEUgAABAAAAAI6CAQAAAATJfL5AAAABGdBTUEAALGPC/xhBQAAACBjSFJNAAB6JgAAgIQAAPoAAACA6AAAdTAAAOpgAAA6mAAAF3CculE8AAAAAmJLR0QA/4ePzL8AACoiSURBVHja7d13gBXV3Yfxh95BOsZCU1TEBtZgr1iwoKhYsEbQEDWiMa8alIgxNjR2jRHBLrFE0RgLIoIdUQREkCaKSi/SYff9wwbCLvfMbTP3Pp/9I3H3TLm/Ocz53qkgSZIkSZIkSZIkSZIkSZIkSZIkSZIkSZIkSZIkSZIkSZIkSZIkSZIkSZIkSZIkSZIkSZIkSZIkSZIkSZIkSZIkSZIkSZIkSZIkSZIkSZIkSZIkSZIkSZIkSZIkSZIkSZIkSZIkSZIkSZIkSZIkSZIkSZIkSZIkSZIkSZIkSZIkSZIkSZIkSZIkSZIkSZIkSZIkSZIkSZIkSZIkSZIkSZIkSZIkSZIkSZIkSZIkSZIkSZIkSZIkSZIkSZIkSZIkSZIkSZIkSZIkSZIkSZIkSZIkSZIkSZIkSZIkSZIkSZIkSZIkSZIkSZIkSZIkSZIkSZIkSZIkSZIkSZIkSZIkSZIkSZIkSZIkSZIkSZIkSZIkSZIkJUOFBK/7IWziBpQk5dF7fGkAyL3R7GzfkyTl0Sk8ntRVr+jWkySp+BgAJEkyAEiSJAOAJEkyAEiSJAOAJEkyAEiSJAOAJEkyAEiSJAOAJEkyAEiSJAOAJEkyAEiSJAOAJEkyAEiSJAOAJEkyAEiSJAOAJEkyAEiSZACQJEkGAEmSZACQJEkFo3IRfdb+rHKDS5LKsTcdLUL8jaY06KeWJZMklatv4MjSLbkf1VMAkiQVIQOAJEkGAEmSZACQJEkGAEmSZACQJEkGAEmSZACQJEkGAEmSZACQJEkGAEmSZACQJEkGAEmSZACQJEkGAEmSZACQJEkGAEmSZACQJEkGAEmSDACSJMkAIEmSDACSJMkAIEmSDACSJMkAIEmSDACSJMkAIEmSDACSJMkAIEmSDACSJMkAIEmSDACSJMkAIEmSDACSJMkAIEmSDACSJBkAJEmSAUCSJBkAJEmSAUCSJBkAJEmSAUCSJBkAJEmSAUCSJBkAJEmSAUCSJBkAJEmSAUCSJBkAJEmSAUCSJBkAJEmSAUCSJBkAJEkyAEiSJAOAJEkyAEiSJAOAJEkyAEiSJAOAJEkyAEiSJAOAJEkyAEiSJAOAJEkyAEiSJAOAJEkyAEiSJAOAJEkyAEiSJAOAJEkyAEiSZACQJEkGAEmSZACQJEkGAEmSZACQJEkGAEmSZACQJEkGAEmSZACQJEkGAEmSZACQJEkGAEmSZACQJEkGAEmSZACQJEkGAEmS9CuVLYGkrKpAW1rQmLrMYSbjmF3U1ejLkQGtezAqxl8f27EljanDLL5hLHPt6gYAqVhcy+8DWl/PTUVYoz3pQSearfWbEkbxPHczr0h7TQs6BLSuE9NPsQ/ncShN1vrNGj7gP9zDQncMyoXRlAb91LJkyqibg/pfn6Krz/b8t8xqLKQv1Yqy1wwM6jX7x/AT7MzrZa7vPK6kSsK3UN/AkaVbcj+q1wBIyoZuvEenMv9alz68TUvLlDinM5IDy/xrffoxlN9YJgOApGL1Rx7b6DG39rxDK0uVKFcxiJobabM377G5pUoCrwGIv6PoHNR+AO9maU3+StOg9j0pdfMVpS7cnFK7przIb5lvwRLiNP6aUrvNGcI+LLZgBgClqwPnBbUfkbUAcCLbBLU/3wBQlBozIOVji9vSn7MsWSJsxn1USLHtTlxPL0sWd54CkJRZfakb0Lp70FXxyp+/bfTg/9p60NaSGQAkFdf3/3MD90GXWbQE2ILTgtpX5lKLZgCQVEyOCr4N7EiqW7bYOzZ4tDjaU8wGAEnFFQBC1WZfyxZ7RwZP0ZA9LJsBQFLxaJOjaZRb27hdDQCSVJ5NczSNcqup29UAIEnlifL0+k0sW8xVo4bb1QAgSeWJ8q6/7yxbzK2I9JIft6sBQFIR+TbCNDMtm9tVBgBJyTY6wjQfWza3qwwAkpLtP8FTfM0oy1aA2/ULPrNsBgBJxeN15gVO8ZTvjEiAl4Jf7vOERTMASComy+gX1H4xN1q0BFgUuJ3mc6tFMwBIKi53MTGg9d8iXV6m3OvP9IDWVwcfCZIBQFLCreQY5qfYdgg3WbCEWMqRKd8M+CR3WjADgKTiM4EuLEqh3XBOYo3lSoxxnMySFNq9whle12EAkFSchrErn26kzf0cwlJLlSgvsyvjy21Ryu0cxQpLZQCQVKwmsSeXl/lcwLc4gB6stEyJM4E9uKrM8/uvsw8XscoyGQAkFbOl3EgrzuSJtWJACWO4kb3Zl2EWKKG+5zpacg6D14oBJYzmevbkYEZaoOSobAkkZXGwGMhAoCbNqMMsZnnOvyAs4kEeBGrRjFrMYhYlFsUAIEkbOhowxSIUoCVMtgjJ5SkASZIMAJIkyQAgSZIMAJIkyQAgSZIMAJIkKSm8DVDJ1YDd2Jo2bMXm1KIe1anJApaxnFlM4wsmM4ZPiuy+8ypsww7syOZsSVMaUom6VGIhJSzkW2Yxg4lM5FO+tvv8qC170J6t2JJmVKEO37OceUzjC8YynPE+014GACk+anA4B7Af22/gCFZ96gOt2PPH/17M27zFc4wr+Kq051AOpCM1N/C3ekB9Wqz1m5l8wJu8ytis7FXqBLRek9Jrg35RkXoBrVezuMy/7UZ3jmbLX/22NrVpRBsOBWA2z/AwbycsBtSPME15lYqyXTc+PykNoykN+qmV0M95deDnPD1razIhcE0yf4KpEocykEWB61FKKZ/wZzbL8NrcHLQGfbK2XdrQj0kRalJKKV9zF/tTKaPrs1fQGowJnHvroLn/p4wQ0ZVRQet4QsZ688Cg9d8/whLOjtAPSjhpo/M9KGiO7yR2ZOkbWLtuyR1EvQZASVGdnkzkf3QP+h7ykx25nik8yLYFVpVDeJEJXMlWEaf/DRfwBtO5dp3jA4VjQy8j6sj7PEX7gLnswGA+YJdEfOJ23BFhqj486S6m+BgAlARV6c1U7qFVmnM5i3E8ud5B36TaixG8whFUSHtOm3EVk3mGPQqu58xaL0beynA6RJhTe96jb+z3mLV4aoMngcr3MNe5kzEASHF0AB9zM80y1ONPZDx/pmrCa9KIxxhJx4zuC47jXV5jtwI+AtCUYVwcea9XhT48Q+1Yf9572C54mrf4nZc6GgCk+KnHw7weYadW/rek6/mQbRJclaMZS7cMfPNf30G8V0DHSNY9ArA976Z9jOMYhlI3tp/27AhXAE2mCyvc0RgApLjZhVGclpWBbgc+SOjFOxXpx3M0zdr8K3Ai47g4wxcG5v8IQHtGZuQ6h914IcJB9lyIcvZ/Pkcxxx2NAUCKm3N5m9ZZm3sdHuPvWQkX2VSdZ7gy62tdm1t5syAuC/zpCEArXgy6fbA8+/JADD9plLP/qziBCe5oDABS3FzDP6me5WVczj2J+jdQjac5JkfL6sjHdCmQIwCNeTlD15D8oBvnxe6T3h3hRNkFDHVHYwCQ4qUCN3N1TpbUg0GJ+VdQkcc5IofLq8e/6ZO4YyRrK2U2UIFBbJ3hOd9Gy1h90rPoHjzNTbE8kiEDgIrc7fTO2bJO5YaEVOUvHJfzINaXhxJ8NcBCVgIX0ynjc67BLTH6nNtzZ/A0z/FndzQGACluetMrp8u7lJ4JqMqhWXyWYHm680Rib5qcxQ+PgMqG4zgwJp8yytn/UZxGibsaA4AUL8dxY86XeUdG76jPhhp5vFrhBB5K6J5iNhW4i2pZmvsVMfmUd9M2cIqvOJol7mpkAFC8tOORPPTKygyM+QNerkjzKYjp6cZNCT0CcAp7Z23uB0V6omCmhZ/9/57OzHRXI98GWIhqRnoXWCqyfy64KoPydI91a27ld7HdpvW5KM9rcAkf8Wji/i1sz15Znf/5nJv3Txh69n8Np/Cxu0kZAArTvdyb2HXvE/GFK6sZzzfMYhnV2Jx2kR6Tcy4PMzymdbkg0guQAGbyDYuoTiOapHkf/H18xGcJ609tsjz/Lvw+r0/Ri3L2/zJecCcpA4DiZvcI1yWv4Ale5FUWrPPbtnTlHLYInNdN7BnLZ6JXiHDX+QKe4jneZf5av2vG/uzPsRGfIliLB+nohWPrqE+nMl44nBt3BZ/9v49b3Wz6idcAKD76B55kWM0DtOFMBv9q+Ifx9GUreq33+40FkJNiWZcOgc/mX8MNtKIH/11n+IdveYKeNOdcxkdajz050k76K/msyJmcETjFqzm+v0YeAZBSclzglfgzOI5R5fx9JXfxHE8EXQTWl6di+B037Nl/i+nCa+X8fQX/4iEu45rAq+M/oTevF0RPW8BwPmUG86hNM5qwM3tFvlPggLx9iu25K3CK8XRltTsaGQAUN1X4e1D74XRd713v6/uag3mYrinPtQ2deCl2tdk9qPVZ5Q7/Px0j+DtDeJatUpznN/yFAQVx+H8Yt/LSesNgfc7kzzSJML+t2IIZWVzfsk5JhZ/9n81RLHRHo7V5CkDx0C3ogq13OCyF4f+H77un8t+AOV8Yw9rsHND2DZ5OseVY9mVcCu2W0o82/KsAhv+vOIoDeH4D34Lncyvb8lykue6W1XVeWcbv7ww8+7+cY5nqbkYGAMVRyLnJqRzL8pRbr+IUJqfc+tCUvxXnSoOgb6YDA9p+w/58sZHvn4+wLX/h+wLoYSNpz4vl/H0+xzMgwnzb5SEAnMGZgccRzuFtdzIyACiO9gj4HrWSo1P89v+TBfwu5av7KwScMMhVAAgxMaj1HE4sJ0q9xR6cntUD3LnzDp1+fDNg2UrowbsJCABtg8/+9+UxdzIyACj53/9vZ2zw/N8o97vfuo6LWW3C7t4PvchrNJdt8PeTOYF9+aBA+td8TkzpKMYqLgq+EXTrrK75+k8ZqMlT1Aqax2P81V2MDACKp5oB753/jmsjLSP1R9nuGvz8gOwKu1A3/Iz0PUz41W8WcCltU76WIAl68lWKLd/nicB5/ybHRwD+wfZBcxjJObF8uoUMABJwWMD1zP1YFGkZw3kvxZYVODRW1Qm7cvuSwG+HsIar1vkOfCdbc0uZF58l0Rs8FRSIwjSiSg4DQOfAhw9P4biA62VkAJByLPWD7st4JPJSUh8E9kxwAGjNv4MjwDM/Xx8+hB35A3MKrH+FPftuJN8G7kObZHHdV/wqbNwfNPUCjtrolQ8yAEh5U4WjAoaqBWl8D0zVXrGqz6zAF7d24iMODpqilMeBTziYzuudDki+SQHXfwCU8HzgErL5Hsl1r1y4h2YB067ixMS9vUEGABWVDgFvLxyQxnI+YV6KLbejbozqsyb43W1teJURdKdGylM8zLm0L5Dn/P3ai8FPMBgV2L561tZ9+TpHAE7lhKCpe/GquxcZABRne6Tccllab+srSfma9opsE6sKRbkWvyMD+ZoHODalEwITCuJBPxsW3mdC35SQvQCwYK3//xvuCJq2f+DpAhkApBgHgA9YldaSpqfcsmWsKvRsxOnqcw7PMoeXuIQdqVCUvauUt4KnCT1sXjVra7/29R93Bhwpg+fLuL1TWovvAlC+pf6k+3fSXFLql0PFKwCM4Gs2izx1dQ7ncGAWr/M6rwXEoEKwOMIljXNZFnD6hCxGq18CwPFBz6cYzam+uFkGAMXdJrROue08OqS1rNS/QbWIVY1KuId+ac+lCd3oBkziNV5kKMuKon/NjTTV90EBIHsW/NxzQw7/z+Tognh4swwAKnCtAtrekMNYEi930DvoAHB5tmZrzmcprzOE5wNveSueANA4Fms//8f/vYlNA6a6OuXHHqnIeQ2A8qtFLNeqVszWZ1HGH+Zak87cx1cM5TwaFXD/WhwxAMTDD++8OICzg6bqncWrEmQAkDKmuQEgJbczMgtzrcQB3Mc3/JcuBXo0MNpDcFfFZO2/A6pxd+BVBtvS2x2LUuEpgMLTh5eyNOenszBcx/MIQM3YrVEJ3XkvS9/VK9OJTnzF/fyz4E8JJMss4DK2DZ7uKh4rsos9ZQAQANOCH2SSqmw8U7xxLGu4JobrNIXjeI1qWZv/5vyVq3ica5jmP6LYHAFozRWRAuw/ONbyaWM8BaD8qhXLtVoay7UaQdcNvB42k6pyBhO4LaaxrBgDwJ0R70c4JuAB2zIASHlRM5ZrtTSm1XqBo7J+gVo1LmIyV2T1HXdKze/oFHna22NyK6MMAJIBICNeYw8+z/pS6nAd77GD3TPPzklj2paRTh7IACAVeQBYFOOKjWd3BuVgObvwLqfbQRPsMtpYBBkAFF/xfGDpzFjXbBFn0JkZOQhng/ibXTSxqnGnRZABQPEVz4Pt8X+S2hC2pQ9Lsr6c/+OuIn2NUCE4hBMtggwAiqt4PpE+CY9SXcq1tOCaCC+7CXMB19hNE6s/dSyCDADyCEDqJiakenPoS3N6MSWrS+nDyXbUhNqMvhZBBgAZAFK1MFFPUVvKXbThCB7J4gmBe9jSrppQf2BHiyADgOLomxiu05iIT5DPnzX8l9Npymn8l5VZmP8mQa+jVZxUDn6XgIqoc0j5lPp37THsn6N1WpnQWi7hUR6lNgdzOEeweUbnfTT78abdNZE6ciYDLIMMAEpuAGjy89vRVZ7veY7ngB05mEPYN2NPWrjCAJBYN/Af5lkG/ZqnAJScAFDdcgUYQ38OpwEH8jc+yMDrjQ6mtUWNhZeD7+9v7PMcZABQ/ExJ+Xx7RbazXMFW8AZXsjtNOJlHmJvWvqKb5YyBqZzKlcGPqvodu1s6GQAUL4sCbrnbyXKtp0aKr32dx5OcTlMOYACLIy7rUMudd8vowjwW8cfgPf3dVLJ8MgAoXt5PueXeFmsdFTiFCTxJo5SnWMMwzmZTevBlhOXt6fvl8q4HHwPwFK8ETtmBnpZPBgAlNQAcmPayDmezgqnb3rzLo2xJVU4KnHIJ99OGi4JfLFzFl8vk2Z08/PP/78XywKn70dQSygCgZAaAluyc5rKu4nOuplbia9aawbz181ndMyPMYQW304GpgVNta3fNo5FcstZ/TeLvgdNvwk0WUQYAxcmogKfZn5LWkmqxK7W4hs85I8E9fxNuZjwnrPWbXTkq0pwmcggLgqZoZnfNm2/oyqp1fnMDkwLncRr7WUgZABQfaxiSctuz0rqrvRNVAdiMh3g/57vCKhmZRy8m0fvHz/GL6yNe4DWZfkHtfbFMvqzixPWemrmcXoFzqcBdGemHMgBIGfKflFs24qw0lrP27rIDw3iarXL4KdN/IE9nPuWODV7y1y5yXR6mJKB1LTtrnvRmxAZ++wpPBs5ney62mDIAKD5eCXglUB/qRVzKTus9SrgL47iF+jn6lOkNnjvzOs+zTZl/71/O38ozi1kBrZfaWfPikTLfxXAJiwLn1YctLKgMAIqLpfw75bZNgi99+qmnb2gXWpVLmMQfIh4WLQlqHf19er/hX4zayD0QdRgc8Sa9kBcfLbSz5sHH9CjzbzP5S+DcanObJZUBQPFxV0DbHhwTYQk92aeMvzTkdsbQOcI8w14aFO10Q036MJGzU/iXugODIgSZqkG3hvk8+dybx/HlHnm5i9GBc+zC4ZZVBgDFxfsBNwNW4BHaB86/40ZugNqW53kt+EmDK4Jatw6+C7siZzCRvimfPDiBZ4Lfl3Bw0D7gM7tqjpVwKlPKbbGG8wOPRcEdvldDBgDFR8jrTWrzCrsFtN+JISlcgncQo/hn0I1uSwL/rR0Z1H5TPuChwAcXHcWLNA6a4oKAtqsZZ0fNsWt5eaNt3uP+wLm25s+WVgYAxcXjTAho3ZChnJZi2y68wSYptazEuUziypTPpc8K/Ix/CjpE/13Q2fmfHMi4dZ4RUL6zgkLJuOBnzyldw1JqdUVwX7w8p3fAyAAglfvt8v+C2tfmYf5N840GhXt4Oug6/9r049aUh+gw23BjOX/d+VfrWbLOc99S15jBDE7pnoAzuS9ozi/YTWNqPpcGTlG9zPsKZACQcu65Dd7pXJ7jmciD7EGFDf51S25hWoQXoCzl+hRbhr9Q52IeW+9ugHp0pj9fMHq9x/sMZ0DEWp7AOJ7miHKOOGzHswwIvGjwOTtpbD2S4rGCX3TieMtW7CpbAsXGH3knsEdW5SzOYjpv8gGTmcUi6tGExnTgYLaLuBZXMz3FlpNZud6gvTHd6MZYvmQBVahBA1r9fNXB0g0cxv0jB0W8fbASXejCIl7nXT5mOt+yEKhDfdrSnmMivB1+LB/ZRWOrlAv4OLA33sr/gl8IJQOAlBUfch1XR5iuOd3pnqF1GEH/lNuuZhLbR1hGO9pt4LfTN3DOfyHdeTWNh7fW5TiOy1Bl+ke6JkG58hm3BJ5G24I+/MnCFTNPAShOruPDvC5/DqcF3VL1TgaXPW2Dv32T3rHYMl/xmN0z5vqV0YfKdnGkACsDgJQFqzg9+NGmmbOGU1I+/P/T8Jw5Zb2a947AS/Wy44+BTz1Q7i3lD4FTVOHuMq6gkQFAyrkJnMTqPC3797waOMWrrMnyEQCAC3g8z1vl5YCHNSt/hgRfqLlvyrfTygAg5WCw6ZWX5faN8E37O4bmIACUcAaD87hFvuUcu2VCXBT4eCq4KcWnZMgAIOXAfVybh+H/mkjTDcxBAIBVnBz0voRMWs1JzLRTJsSX9A2coin9LJsBQIqPPvw5h9ecl3BpxOEfngq8aiBaAIASenFpHk6OlHAOw+2QCXIbYwOn6EkHy2YAkOLjBi4IfsVJNEs5kVsiT70qQ0crvmf2RtvcwsF8m+Ph/3cMsjMmyirODwzPlbjHkcAAIMXJvRzJnKwvZSK/5em05jCAkVn//v+TN9mZZ3K2BZZyMg/aERNnBA8FTrEb51k2A4AUJy+zS/DjgcM8xK58kva35DOZl6MAAN9xPCfzTQ6qP4N983rpoaL7E3MDp7gu8C2SMgBIWfYVB3AlS7My7y85nLNYnIE5fcGJad8lPy2g7ZO04TqWZbXyA9mRUXbAhJoT/LrfBuW+qEoGACkPVvM3tsv4Xejf8xe2S+FN66l6nSPSjBLTAtf/KrbmtuBbvlLzOUdyJgvsfAn2IG8HTnEGe1s2A4AUN1/Slf35X4buC1jEjWxFvwwfVxjKHmm9LGdq8BRf80da0ifCOwnLM5PzacdLdrqEK+H8wHtGKnC374YxAEhx9Cad2IVH0zzUPoHLaM7lfJeFNfyMvegdfO4V4FsuZEikZc7mWlpxFE9m5K1uH3IaLbk3b09iVCaN4fbAKXbgQstWXEx88Tcz8Fzs3Kytybg8vzz0E06jF8dyEgcFvyFvBs8yOMuXFK6kPw9wBueyY4pTLOA1nuFpVqax1DW8yIvU4DCO5EBaRZrHFJ7gScZkqA7fB/XYLwLnviJo7hMjhrmQo01hJ3+mBa1/OieWrqE9dYKm6Mz95fwbXxS05hPcdcdfkl8EMZqdg9rXztIZU+VeA/ZmHzqy60aDwNe8x3CG83FOX2a7NYexHzvReoPH2FYxmfF8yqu8l/Fv2y3Zm/a0ZyfqbbRtKVP5gDd4I+IwKRWivvQJan9K3t/V4REAFZV5PM/zQFVa0IrWtKI29ahOLWARa/iO7/iKyYxlfl7WbxKTuBOowZY0owm1qAosZjGLmMVkVmVtyVOZysMANKI1W9GERjSlLpV//C44nxK+42tm8gXjMnIPhCQDgJRzK5kY62+vy/icz/O07DnM4T27iKSyeBGgJEkGAEmSZACQJEkGAEmSZACQJEkGAEmSZACQJEkGAEmSZACQJEkGAEmSZACQJEkGAEmSZACQJElFHABKDDuSpIyqFNh+jQEgH1YGtq9qz5YklataYPsVBgADgCTJAGAAyIkVWd6skiQDgAGgAAJAbXu2JCmjI8XK5H7UJAeAZYHtG9mzJUkZHSmWGgDyYW5g+4b2bElSRgPAHANAPszJ8maVJBWb0K+K8wwASTgC8Bt7tiSp3DGxWVD7ZSwxACThCEAL+7YkqRybBd4FMCfJHzbJAWBWYPuW9m1JUgbHidkGgPyYbgCQJGVQq8D20wwA+QoApUHtN2MTe7ckqUxtA9tPMQDkx3K+DWpfgXb2bklSmXYKbD/VAJAvU7O8aSVJxWRHA0BSTDYASJIypEngTYDho5ABIGM+DWy/l/1bklSGjoHtlxkA8mdMYPvtaWAPlyRt0N7BX0LXGACSEgAqsKc9XJKUkQAwJtkfN9kB4JvghzDsZw+XJG1AXXYJnGKsASCfRge2P9w+LknagEOokuURyACQUW8Htt+BLe3lkqS0vyCu5EMDQD6NDJ7iMHu5JOlXKgQHgFEsNQDk0zusDpyii/1ckvQrewW/Mv6tpH/kpAeAJcFXYR5ME3u6JGkdJwdPMTLpH7li4jfasMD2lTnWni5JWkslugZOsYYRli3fDqY08GeYRZMkreWQ4JHE4T8GqrE4cLOV0MaySZJ+9mRwALjSosXB88Eb7gaLJkn6USOWB48ju1i2ODg/eMN9R1XLJkkC4LLgUWQmFSxbHGzK6uCNd4ZlkyQBlZkWPIbcZdni4s3gjfep6U2SBJwWPIKUsq9li4sLImw+nwgoSYKPIpwAqGTZ4qJphJMAb1g2SSp6R0T4AnmrZYuTVyJswoMsmyQVtQqMijB67GHh4qRbhE34vtcBSFJROyHC2DHessVLNWZH2IxHWThJKlqVGR9h5LjQwsXNzRE24ySqWThJKlIXRhg3ltLAwsXNNpRE2JS9LZwkFaUGzIkwagy0cHH0WoRNuYCmFk6SitB9EcYMLwCMqcMjbczHLZwkFZ29WBNhxBhm4eLq40gR4BgLJ0lFpRrjIo0XR1q6uDoz0gadQV1LJ0lF5G+RRotx3jweX1X5KtJG9aIOSSoeHVkVaaw409LF2QWRNmopp1g6SSoKmzA10jgxkcoWL97HAKJt2AW0sHiSVASeivhFsZuli7uzI27a0dSweJJU4C6OOEZ8SkWLF3eVmRBx8/7L4klSQduPlRFHiGMtXhIcE3HzltLT4klSwdqCbyOODm96/X9SvBxxE6/kUIsnSQWpbsRnxZSymp0sX1K0jXyQZ5GbWZIKUBVeiXx0+G7LlyR3RN7QM9jC8klSQanIw5FHhbk0soBJUp9vIm/siTSzgJJUMCpwT+QRoZQeFjBpuqaxuSf4jkBJKhg3pDEeDPPyvyR6No1NPpomFlCSCuDb/81pjAVL2doSJtGmzEvrKMDmllCSEq0S96cxDpRymSVMqjPT2vBTaGUJJSmxqvFkWqPAOz79P8keT2vjz2EfSyhJidSAN9IaARZ7+D/ZNmFaWh1gua9/kKQEas1nae39SznVIibdfqxJqwus4WpfASFJidKJOWkO/4MsYiG4Os1uUMqL1LeMkpQIFbkmzS9+pYyjjoUsjM7wQtoRYDK7W0hJir2mkd8G88vPAraxkIWiTtrngkpZxTVUspSSFGOHMTPtvX0Jx1vIQrID36fdKUp5i60spSTFUt007/n/6aevpSw0R7I6Ax1jKddQ1WJKUsx05suMDP9Pedl3IfpDRjpHKaPZ02JKUmy05LkM7d/forrlLEz9M9RFSniKFpZTkvKuFtewLEP79kk0tqCFqiKDM9RNSlnCX9nEkkpS3lTl/DRe/f7rn5k+/r3Qu8uQjHWWUhbxd0OAJOVBFbrzRQb357NpZ1ELXQ2GZrDLlDKX62hmWSUpZ+pyCdMzuiefT3vLWgxq83ZGO04py3mQXSysJGXd1tzCwgzvwxd5aXfxqMeIDHefUkoZxfnUs7iSlBU1OJ1hlGR83z2fjha3mNTkf1mIAKUs4wW6+wxpScqganRmUMa/9/90GtcHvRdhh3ouK53phzsEnqUHzS2yJKVlM87mySwN/aWUMoNtLXIxqsLArHWqH37Gcw+n09JSS1KQ5pzCnYzJ+j66RTEXuQLF/en7cHUOavAtYxjDp4xnKnP9ly1JG9CIFrSlHTuyI5vmYHlDOYH5BoBidjoP5PTp/ouYxlfMZS5zWcRyKO4OWES+ZxWwhO+Zx3yWWpB19kMNqE896lIJqENlS1IE23wToAZ1aUhDGrAFLXJ89dQAerKy2DeC9mcwjSyDcmoF85jNl3zJV8xgChOYVzSfvTKtaMOWbM4WNKcZjX2clnJsDX/hestgAADYkqfZ1TIor2YxngmM40M+ZnkBfr4t2JWd2Y7taOMbNZVXcziVVyyDAeAn1bmDcy2DYmEVY/mA93mTLxL/WWrwWzqyK7v5vEzFxAecwJeWwQCwrrO5g5qWQTHyJUMZylC+TtyaV2EPDuQA9qKam1GxUco9XMIKC2EAWN82PEoHy6DYGc8LDGEkpQlY11ocSFc6e15fsTObc3neMhgAyv7e8lf+REULoRiawfM8xjuxjQEN6MoJ7EcVN5Vi6EXO4TvLYAAo3748wNaWQTE1hUd5lM9jtU7VOZLTOMKL+xRTC7mc+xNxBM0AkHc16ENvv8coxt7jPp6MxdME2tGTUz3grxh7hj8w0zIYAFK3E/9kN8ugGFvAQO5lQt6WX43j6ck+bgjF2Ff04j+WwQAQqiLn0I8mFkIxVspr3MhrOV9uQ35PLxq7ARRjy+jP3/neQhgAoqnFZVxOdQuhWPuE/jzG6hwtrRk9uZh6ll2xNoQLmWoZDADp2YprOdE7AxRzk+nHw6zJ8lJa0odTvT5GMTec/+Nty2AAyIy2XMMJVksxN4HreYSSLM29Mb252Af7KObe4XpesAwGgMxqTx86eyRAMfcRV/C/jM+1Pv9HL2pYXsXaCPplofcbAARAay7kXB8YrJh7jYsZl7G5VeQ0bvJyWMVaCS9xvYf9DQDZ1pjzOY/NLIRibCX/oB+LMjCnffkHO1tQxdg8BnKHF/wZAHKlEodzLkdS2VIotr7lEh5Paw5NuI2T3UsotkoZyr94tiBfoG0AiLlNOZ2T2cVCKLaGcD5fRZy2O/1paAkVU5/xFIOYYiEMAPnUgmPoSkcLoVhawrXcFHxnQAvu5TCLp1iaxvMMZoSFMADERWs60YkDqGUpFDvD6M6MgPbncBu1LZtiZhnDeZmX8/j4awOAylGNfdmXvdndOwUUK/PpweCUWjbgfo63YIrVwP8hIxjOmyyzGAaA+KtMe37LzuxAWx8krJgYwIUbfS76AQxic0ulGFjBeD7lY95hFKsshwEgmVFga3agFS1pSQua+8Z05dEkjufTMv9akau5ykddKY9D/nSmMZVpTGYsk3L2dgsDgHKkAY1oSEMaUo3aVKESdS1KUagPVKQ+DWlAAxrm6al6SziPx8romY/SKU+1mcdc5jKP+SwBlnugtygspISVLGE5c5nLXOYw36IYAKRi0JTmNKc527ADbamTwyXfzqXrHVLdhadpmbM1KGUa4xjLFKYznenexS0ZAKRi/XfYgp3Yi73okJPLR0fQhdlr/fep/DMnRySm8zbv8gFjWexGlyTpF1XYnSsYxkpKs/rzBdv+HD76UJLlpX3Ng5zMpm5eSZLKV5tjeJC5WRyU57E/UJWHsjr0v8/ltHNzSpIUdjzgMB5gfpYG5xVcwNAsDv29aeEmlCQpqmp05QVWZ/kwfSaPLdzn+wMlScqMltzAvNgP/iM50WddSJKUWdXpzviYDv2reYHfuokkScqOinTl05gN/iu4ly3dNJIkZVcFOjM6JoP/SgbR2k0iSVKujgScxdd5H/7/7eAvSVKu1eRyFudt8P+Q/dwEkiTlxxY8l4fBfy7n+N5ASZLyqzNf5nT4f4HNLLokSflXj3uz/kT/H35mcLjlliQpPg7NwUWBg2looSVJipfGWb0eYCHnWWJJkuLpoiy9SvgjWlpcSZLiq2MWTgU8TE0LK0lSvDVjeAYH/+X0sKSSJCVBZe7N2B3/+1tOSZKS4yLWpD38T2ZbCylJUrKcwoq0hv+RNLKIkiQlz4FpvCtgKLUtoCRJybQPCyM+7re6xZMkKbl2Z27w8P8YVSycJEnJtjOzg4b/J6hs0SRJSr6dAiKAw78kSUUXAR53+JckqdgigMO/JElFFwEc/iVJKroI8DiVLJAkScUVARz+JUkqaDtuIAI85vAvSVKxRYABVLQokiQVvu345ufh/0GHf0mSii0COPxLklR0EcDhX5KkotPc4V+SJEmSJEmSJEmSJEmSJEmSJEmSJEmSJEmSJEmSJEmSJEmSJEmSJEmSJEmSJEmSJEmSJEmSJEmSJEmSJEmSJEmSJEmSJEmSJEmSJEmSJEmSJEmSJEmSJEmSJEmSJEmSJEmSJEmSJEmSJEmSJEmSJEmSJEmSJEmSJEmSJEmSJEmSJEmSJEmSJEmSJEmSJEmSJEmSJEmSJEmSJEmSJEmSJEmSJEmSJEmSJEmSJEmSJEmSJEmSJEmSJEmSJEmSJEmSJEmSJEmSJEmSJEmSJEmSJEmSJEmSJEmSJEmSJEmSJEmSJEmSJEmSJEmSJEmSJEmSJEmSJEmSJEmSJEmSJEmSJEmSJEmSJEmSJEmSJEmSJEmSJEmSFHf/DxYGURQ/jyPCAAAAJXRFWHRkYXRlOmNyZWF0ZQAyMDIyLTA2LTI5VDIwOjA5OjIxKzAwOjAwT37Z1gAAACV0RVh0ZGF0ZTptb2RpZnkAMjAyMi0wNi0yOVQyMDowOToyMSswMDowMD4jYWoAAAAASUVORK5CYII=;" parent="1" vertex="1">
          <mxGeometry x="680" y="638" width="75.46" height="42" as="geometry" />
        </mxCell>
        <mxCell id="hpMS26rsnR7OrJgmKB5F-1" value="&lt;div&gt;CSC â€“ IT Center for Science&lt;/div&gt;&lt;div&gt;paituli.csc.fi&lt;/div&gt;" style="points=[];aspect=fixed;html=1;align=center;shadow=0;dashed=0;image;image=img/lib/allied_telesis/computer_and_terminals/Server_Desktop.svg;" vertex="1" parent="1">
          <mxGeometry x="609" y="770" width="71" height="90" as="geometry" />
        </mxCell>
        <mxCell id="hpMS26rsnR7OrJgmKB5F-2" value="" style="endArrow=classic;html=1;exitX=1;exitY=0.75;exitDx=0;exitDy=0;" edge="1" parent="1" source="-d85q1kpaTbKizXLM7eA-6" target="hpMS26rsnR7OrJgmKB5F-1">
          <mxGeometry width="50" height="50" relative="1" as="geometry">
            <mxPoint x="177" y="313" as="sourcePoint" />
            <mxPoint x="620" y="686" as="targetPoint" />
          </mxGeometry>
        </mxCell>
        <mxCell id="hpMS26rsnR7OrJgmKB5F-3" value="&lt;div&gt;GeoServer&lt;/div&gt;&lt;div&gt;WMS&lt;br&gt;&lt;/div&gt;" style="edgeLabel;html=1;align=center;verticalAlign=middle;resizable=0;points=[];" vertex="1" connectable="0" parent="hpMS26rsnR7OrJgmKB5F-2">
          <mxGeometry x="-0.0125" y="1" relative="1" as="geometry">
            <mxPoint as="offset" />
          </mxGeometry>
        </mxCell>
        <mxCell id="hpMS26rsnR7OrJgmKB5F-4" value="" style="shape=image;verticalLabelPosition=bottom;labelBackgroundColor=default;verticalAlign=top;aspect=fixed;imageAspect=0;image=https://csc.fi/app/uploads/2023/09/CSC_logo_no_tagline.svg;" vertex="1" parent="1">
          <mxGeometry x="682.73" y="780" width="70" height="70" as="geometry" />
        </mxCell>
      </root>
    </mxGraphModel>
  </diagram>
</mxfile>
